<svg width="40" height="59" viewBox="0 0 40 59" fill="none" xmlns="http://www.w3.org/2000/svg">
<path d="M0 49.0941C0 43.6833 4.4772 39.297 10 39.297H20V49.0941C20 54.5048 15.5228 58.8911 10 58.8911C4.4772 58.8911 0 54.5048 0 49.0941Z" fill="#24CB71"/>
<path d="M20 0.108765V19.7029H30C35.5228 19.7029 40 15.3166 40 9.90584C40 4.49511 35.5228 0.108765 30 0.108765H20Z" fill="#FF7237"/>
<path d="M29.9167 39.2972C35.4396 39.2972 39.9167 34.9109 39.9167 29.5001C39.9167 24.0893 35.4396 19.703 29.9167 19.703C24.3939 19.703 19.9167 24.0893 19.9167 29.5001C19.9167 34.9109 24.3939 39.2972 29.9167 39.2972Z" fill="#00B6FF"/>
<path d="M0 9.90584C0 15.3166 4.4772 19.7029 10 19.7029H20V0.108765H10C4.4772 0.108765 0 4.49511 0 9.90584Z" fill="#FF3737"/>
<path d="M0 29.5001C0 34.9108 4.4772 39.2972 10 39.2972H20V19.703H10C4.4772 19.703 0 24.0893 0 29.5001Z" fill="#874FFF"/>
</svg>
