<svg width="20" height="26" xmlns="http://www.w3.org/2000/svg" xmlns:xlink="http://www.w3.org/1999/xlink" xml:space="preserve" overflow="hidden"><g><path d="M15.9031 14.5778C14.2465 14.5778 12.9212 13.2525 12.9212 11.596 12.9212 9.93941 14.2465 8.61415 15.9031 8.61415 17.5596 8.61415 18.8849 9.93941 18.8849 11.596 18.8849 13.2525 17.5596 14.5778 15.9031 14.5778ZM15.9031 4.63839C13.617 4.63839 11.4635 5.76486 10.1713 7.68648 8.87921 9.57496 8.61415 11.9936 9.44244 14.1471L12.5899 21.1047 15.3067 26.8033C15.4061 27.0352 15.638 27.1677 15.9031 27.1677 16.1681 27.1677 16.4 27.0352 16.4994 26.8033L19.2162 21.1047 22.3637 14.1471C23.192 11.9936 22.9269 9.57496 21.6348 7.68648 20.3427 5.76486 18.1891 4.63839 15.9031 4.63839Z" fill="#7F7F7F" transform="matrix(1 0 0 1.00171 -6.55937 -2.87891)"/></g></svg>