<svg width="35" height="36" viewBox="0 0 35 36" fill="none" xmlns="http://www.w3.org/2000/svg">
<path d="M17.3514 35.1076C26.8233 35.1076 34.5017 27.4483 34.5017 18.0001C34.5017 8.55186 26.8233 0.892578 17.3514 0.892578C7.87961 0.892578 0.201172 8.55186 0.201172 18.0001C0.201172 27.4483 7.87961 35.1076 17.3514 35.1076Z" fill="#0C0C0C"/>
<path fill-rule="evenodd" clip-rule="evenodd" d="M17.3513 5.32812C10.3381 5.32812 4.64746 11.0045 4.64746 18.0003C4.64746 24.9961 10.3381 30.6725 17.3513 30.6725C24.3509 30.6725 30.0552 24.9961 30.0552 18.0003C30.0552 11.0045 24.3509 5.32812 17.3513 5.32812ZM25.7425 11.1694C27.2581 13.0111 28.1675 15.3614 28.1951 17.9041C27.8368 17.8354 24.2544 17.1069 20.6445 17.5605C20.5617 17.3818 20.4929 17.1894 20.4102 16.997C20.1897 16.4747 19.9417 15.9387 19.6937 15.4302C23.6894 13.8084 25.5083 11.4718 25.7425 11.1694ZM17.3513 7.19733C20.1071 7.19733 22.6286 8.22813 24.5438 9.91873C24.3509 10.1936 22.7112 12.3789 18.8533 13.8221C17.0759 10.5647 15.1054 7.89832 14.8024 7.48602C15.6153 7.29362 16.4695 7.19733 17.3513 7.19733ZM12.7355 8.21443C13.0249 8.59923 14.9539 11.2794 16.7589 14.468C11.6883 15.8149 7.21025 15.7875 6.72805 15.7875C7.4308 12.4339 9.70427 9.64383 12.7355 8.21443ZM6.49377 18.0141V17.6842C6.96223 17.6979 12.2257 17.7667 17.6407 16.1449C17.9576 16.7496 18.2469 17.3681 18.5225 17.9866C18.3847 18.0278 18.2331 18.0691 18.0953 18.1103C12.5011 19.9108 9.52502 24.8313 9.27701 25.2436C7.55461 23.3331 6.49377 20.7905 6.49377 18.0141ZM17.3513 28.8309C14.8437 28.8309 12.5288 27.9787 10.6962 26.5493C10.8891 26.1507 13.0937 21.9175 19.2115 19.7871C19.239 19.7734 19.2528 19.7734 19.2804 19.7596C20.8098 23.7042 21.4298 27.0166 21.5951 27.9649C20.2862 28.5284 18.8532 28.8309 17.3513 28.8309ZM23.4001 26.9754C23.2898 26.3157 22.7112 23.1545 21.292 19.2649C24.6953 18.7289 27.6715 19.6085 28.0435 19.7322C27.575 22.7422 25.8389 25.3399 23.4001 26.9754Z" fill="white"/>
</svg>
