<svg width="35" height="34" viewBox="0 0 35 34" fill="none" xmlns="http://www.w3.org/2000/svg">
<path d="M17.3115 33.8476C26.6394 33.8476 34.2011 26.3047 34.2011 17.0001C34.2011 7.69547 26.6394 0.152588 17.3115 0.152588C7.98361 0.152588 0.421875 7.69547 0.421875 17.0001C0.421875 26.3047 7.98361 33.8476 17.3115 33.8476Z" fill="#0C0C0C"/>
<path d="M18.6185 14.7018C18.8959 14.3909 19.1245 14.0752 19.4093 13.8074C20.2851 12.984 21.3212 12.5685 22.5309 12.5788C23.1956 12.5844 23.8528 12.6323 24.4937 12.8171C25.9597 13.2399 26.8117 14.2466 27.2178 15.675C27.5225 16.7463 27.5787 17.8461 27.5806 18.9495C27.5846 21.2768 27.5739 23.6041 27.5789 25.9314C27.5794 26.1493 27.5182 26.2065 27.3031 26.2047C26.1012 26.1948 24.8991 26.1945 23.6972 26.205C23.4857 26.2068 23.4401 26.1415 23.4407 25.9421C23.4474 23.7276 23.4491 21.5131 23.4419 19.2987C23.4401 18.7437 23.4047 18.1891 23.2486 17.6495C22.9611 16.6556 22.2478 16.1492 21.2039 16.2042C19.7787 16.2793 19.0374 16.9833 18.8557 18.4291C18.8123 18.7743 18.7917 19.1198 18.792 19.4678C18.7938 21.6215 18.7898 23.7752 18.7977 25.9289C18.7985 26.1437 18.7445 26.207 18.5246 26.205C17.314 26.1943 16.1032 26.1956 14.8926 26.2042C14.6985 26.2056 14.6425 26.1534 14.6427 25.9576C14.648 21.6936 14.6482 17.4296 14.6425 13.1657C14.6422 12.9547 14.7115 12.9058 14.9115 12.9073C16.0612 12.9158 17.2111 12.9168 18.3607 12.9066C18.5723 12.9047 18.627 12.973 18.6223 13.1728C18.6106 13.6822 18.6185 14.1921 18.6185 14.7018Z" fill="white"/>
<path d="M12.0327 19.5748C12.0327 21.6843 12.0292 23.7937 12.0377 25.9032C12.0387 26.1377 11.9802 26.2086 11.7369 26.2059C10.5355 26.1927 9.3339 26.1957 8.13241 26.2041C7.93983 26.2054 7.88178 26.1575 7.88208 25.9589C7.8879 21.6879 7.88739 17.4169 7.88308 13.1459C7.88288 12.9692 7.92589 12.9061 8.11406 12.9073C9.333 12.9151 10.552 12.9176 11.7709 12.9058C12.005 12.9036 12.0369 12.9941 12.0363 13.1944C12.0305 15.3212 12.0327 17.448 12.0327 19.5748Z" fill="white"/>
<path d="M12.3641 8.67491C12.3654 9.99931 11.2876 11.0783 9.963 11.0788C8.65544 11.0792 7.56843 9.99941 7.56422 8.69562C7.55991 7.37732 8.64592 6.29191 9.96812 6.29321C11.2809 6.29451 12.3627 7.36981 12.3641 8.67491Z" fill="white"/>
</svg>
