<svg width="528" height="199" viewBox="0 0 528 199" fill="none" xmlns="http://www.w3.org/2000/svg">
<path d="M104.4 145.6C102.3 139.2 101.7 130.3 102.6 120.1C103.5 110.5 106.3 98.5 110.2 87.1C103.1 94.5 89 112.2 82 112.2C78.4 112.2 74.6 108.4 73.9 104.4C72.5 96.3 75.3 82 77.3 72.8C62.4 87.5 40.9 121.5 34.1 132.6C33.1 134.1 29.9 129.3 30.4 128.7C36.3 117.1 47.1 101.5 54.5 87.3C59.7 77.3 63.4 67.6 63.5 61.2C63.5 53.6 55.2 53.2 50.3 53.1C37.6 52.8 20.4 58.2 20.4 64C20.4 64.6 20.3 65 19.7 65.1C18.2 65.2 17 62.2 17 60.9C17 53.4 36.7 46.6 52.3 48.4C61.5 49.5 67.2 55.1 66.9 65.3C66.8 70.7 64.9 77 62.4 82.9C71.4 70.9 76.3 67 77.9 67C80.2 67 81.7 70.4 82 71.9C82.9 76.2 76.2 100.6 79.3 108.1C87.3 107.5 108.1 82.1 115.4 73.6L115.9 73C120.9 62.7 125.5 54.9 129.3 49.2C130 48.3 133.5 52.1 133 53.8C131.6 58.5 125.8 69.2 121 75.4L119.8 76.9L118 81.2C111.7 96 108 110.7 106.8 123.3C105.8 133.4 106.5 141.9 108.6 148C109.2 149.9 109.8 151.7 111.2 152.8C112.6 153.9 114.2 154.4 116 154.5C117.4 155.1 119.2 157 119.4 158.2C119.5 158.7 119.1 159.2 118.5 159.1C111.2 158 106.3 151.6 104.4 145.6ZM125.478 119.7C123.178 119.7 120.178 116.4 119.778 114.3C119.078 110.2 123.178 102.5 125.278 99.5C125.978 98.3 129.078 102 128.478 103.1C126.478 106.7 123.478 112 123.478 115.3C127.478 115.3 134.478 110.2 139.278 105.8C140.078 105 141.978 108.6 140.978 109.9C138.878 112.1 129.678 119.7 125.478 119.7ZM127.878 93.6C128.678 92.3 129.578 90.6 130.778 89.3C131.878 88.2 134.778 91.9 133.878 92.8C132.978 93.9 132.378 95.9 131.078 97.2C129.778 98.4 127.178 94.7 127.878 93.6ZM138.361 117C137.561 114.7 137.961 111.5 138.461 108.4C140.761 97.4 148.461 81.7 154.561 73.3C157.561 69.1 160.761 65.8 163.361 65.9C164.561 65.9 166.261 68.2 166.461 69.2C166.861 70.4 166.261 73.1 165.361 76C160.961 89.1 148.461 104.7 142.561 109.5C141.161 114.5 139.561 119.8 145.761 117.7C153.761 114.9 161.261 108.1 166.161 104C167.061 103.2 168.661 106.9 167.861 107.7C165.361 110.2 161.761 114 156.461 117.5C152.661 120 148.061 122.4 144.561 122.3C141.561 122.3 139.061 119.5 138.361 117ZM162.261 71.8C160.961 72.9 159.561 74.5 158.061 76.6C153.161 83.1 148.061 93.5 144.961 101.6C150.261 95.7 159.661 80.3 162.261 71.8ZM160.854 115.2C159.754 111.6 163.754 106.2 165.554 104.1C167.354 102.1 169.654 100.2 172.554 100.2C174.054 100.2 175.954 101.2 176.954 102.3L178.354 100.3C179.354 99 182.454 103.3 181.454 104.1C179.554 107.5 176.754 112.5 177.254 115.1C177.454 115.3 177.654 115.3 178.054 115.3C181.654 115.3 189.854 108.8 192.954 106.3C194.054 105.3 195.354 108.8 194.654 109.7C191.854 113.2 184.054 119.1 180.254 119.1C177.454 119.1 175.454 117.5 174.454 115.2C174.154 114.8 173.954 114.3 173.854 113.8C171.754 115.8 168.454 119.2 165.754 119.2C163.754 119.2 161.254 117.2 160.854 115.2ZM175.754 104.3C175.254 104 174.654 103.7 174.054 103.7C170.654 103.7 164.554 111.4 164.154 115.7C166.354 115.1 170.354 110.8 175.754 104.3ZM226.474 63.2C228.574 63.2 229.974 66.2 230.274 67.7C231.174 72.2 221.074 92.5 210.074 106.6C209.174 108.8 209.474 108 208.674 110.5C205.874 120 202.774 132.5 202.574 139.9C202.474 141.2 202.974 142.3 203.474 143.2L204.074 144C204.474 144.6 204.874 145.1 204.874 145.4C204.974 146.3 203.474 145.7 203.074 145.4C201.174 143.8 200.374 141.5 199.974 139.6C198.874 134.5 201.374 121.8 203.874 112.3C200.074 115.7 196.574 117.6 195.174 117.6C192.774 117.6 190.174 115.5 189.774 113.2C188.674 108.1 195.074 101.4 198.874 100.4C201.274 99.7 204.374 101.8 206.274 103.5L206.374 103.4C215.474 75.4 222.774 63.2 226.474 63.2ZM201.474 103.8C198.874 104.5 193.774 109.9 193.274 113.9C195.774 112.7 200.874 108.9 204.974 105.2C203.874 104.5 202.374 103.6 201.474 103.8ZM226.174 69.4C223.474 72.8 219.674 79 214.074 93.6C218.674 86.6 223.974 76.1 226.174 69.4ZM316.98 154.8C317.58 150.2 319.18 143.5 321.48 135.8L321.68 134.9V133.8C321.98 123.1 318.58 114.4 313.08 107.3L312.58 106.7L310.98 106.8C304.68 107 298.28 107.2 292.08 107.3C291.28 107.3 290.38 107.4 289.58 107.4C285.28 116.6 280.28 124.6 278.58 126.8C277.48 128.1 274.88 123.2 275.88 122.2C277.38 120.3 280.28 114.8 283.78 107.5C274.48 107.6 258.68 108 250.78 107.1C246.78 106.6 238.08 104.1 238.08 98.3C238.08 90.5 251.48 83.3 265.88 83.3C273.58 83.3 283.08 85.3 292.18 89.4C299.48 72.9 304.88 58 306.78 52.4C306.98 51.9 307.38 51.6 307.98 51.8C308.78 52.2 311.28 54.6 311.08 55.4C309.28 61.1 303.98 75.5 296.88 91.7C301.18 94.1 305.28 97 308.98 100.3L310.68 101.8L311.38 102.4L332.78 101.8L335.68 94.4C342.78 76.4 350.78 56.1 355.08 47.6C355.38 47.2 355.98 47.1 356.48 47.3C357.48 48 360.08 49.6 359.58 50.6C355.18 58.9 346.88 79.9 339.78 97.8L338.28 101.7C345.68 101.5 351.38 101.4 354.98 101.4C356.68 101.4 355.28 105.7 352.48 105.7H351.08C347.38 105.7 343.08 105.9 336.58 106L333.98 113.3C331.18 121 328.58 128.6 326.58 135.5L325.78 137.9V138.5C325.38 144.5 323.98 150.9 321.18 158C319.98 159.2 316.78 155.6 316.98 154.8ZM268.08 103.2C273.58 103.2 279.58 103.2 285.88 103.1C287.48 99.7 289.28 96 290.88 92.3C283.08 89.2 273.58 88 266.58 88C253.48 88 241.98 95.4 241.98 100.1C241.98 103.9 263.68 103.2 268.08 103.2ZM329.88 110L331.18 106.2L315.28 106.7L315.78 107.4L316.18 107.8C320.08 112.7 323.08 118.3 324.68 124.8C326.18 120 328.08 115.1 329.88 110ZM308.28 102.5H308.38C304.48 99.2 300.08 96.5 295.58 94.3L291.68 103C297.18 102.9 302.68 102.7 308.28 102.5ZM354.298 116.2C362.398 116.2 369.198 110.8 374.098 106.7C374.998 105.7 376.598 109.7 375.598 110.7C373.198 113 365.098 120.2 356.598 120.2C351.398 120.2 347.598 116.1 347.598 111.7C347.598 105.3 354.098 99.5 359.898 99.5C362.498 99.5 365.398 102.3 365.398 105.2C365.398 108.9 359.398 112.9 351.198 113.2C351.198 114.6 352.298 116.2 354.298 116.2ZM361.098 103.5C358.198 102.6 353.598 107 352.598 109.1C357.898 108.6 362.098 104.6 361.098 103.5ZM394.52 112.9C394.12 111.1 394.22 109.6 394.02 108C391.52 109.9 387.02 114.8 385.82 116.2C385.12 117 382.92 115.4 382.92 113.5C382.92 111.1 385.52 105.7 385.92 103C382.42 104.6 375.72 115.2 373.52 118C372.62 119.3 370.42 115.8 370.62 114.9C371.52 112.3 375.42 103.6 376.92 101.2C377.22 100.7 377.82 100.7 378.32 101C378.62 101.3 379.42 102.4 379.52 102.8C381.12 101.1 383.72 99 385.42 99C387.22 99 388.82 101.7 389.12 103.1C389.32 104.1 389.42 105.1 389.32 106C390.62 104.9 392.02 103.8 393.82 103.8C395.82 103.8 396.92 107.9 397.02 108.9C397.32 110.8 397.42 112.9 397.52 114.3C401.22 114.4 408.02 109.2 409.62 107.9C410.82 107 412.42 110.9 411.52 111.7C409.32 113.7 403.82 118.3 399.32 118.3C396.72 118.3 394.92 114.9 394.52 112.9ZM430.945 112.9C430.545 111.1 430.645 109.6 430.445 108C427.945 109.9 423.445 114.8 422.245 116.2C421.545 117 419.345 115.4 419.345 113.5C419.345 111.1 421.945 105.7 422.345 103C418.845 104.6 412.145 115.2 409.945 118C409.045 119.3 406.845 115.8 407.045 114.9C407.945 112.3 411.845 103.6 413.345 101.2C413.645 100.7 414.245 100.7 414.745 101C415.045 101.3 415.845 102.4 415.945 102.8C417.545 101.1 420.145 99 421.845 99C423.645 99 425.245 101.7 425.545 103.1C425.745 104.1 425.845 105.1 425.745 106C427.045 104.9 428.445 103.8 430.245 103.8C432.245 103.8 433.345 107.9 433.445 108.9C433.745 110.8 433.845 112.9 433.945 114.3C437.645 114.4 444.445 109.2 446.045 107.9C447.245 107 448.845 110.9 447.945 111.7C445.745 113.7 440.245 118.3 435.745 118.3C433.145 118.3 431.345 114.9 430.945 112.9ZM443.471 115.2C442.371 111.6 446.371 106.2 448.171 104.1C449.971 102.1 452.271 100.2 455.171 100.2C456.671 100.2 458.571 101.2 459.571 102.3L460.971 100.3C461.971 99 465.071 103.3 464.071 104.1C462.171 107.5 459.371 112.5 459.871 115.1C460.071 115.3 460.271 115.3 460.671 115.3C464.271 115.3 472.471 108.8 475.571 106.3C476.671 105.3 477.971 108.8 477.271 109.7C474.471 113.2 466.671 119.1 462.871 119.1C460.071 119.1 458.071 117.5 457.071 115.2C456.771 114.8 456.571 114.3 456.471 113.8C454.371 115.8 451.071 119.2 448.371 119.2C446.371 119.2 443.871 117.2 443.471 115.2ZM458.371 104.3C457.871 104 457.271 103.7 456.671 103.7C453.271 103.7 447.171 111.4 446.771 115.7C448.971 115.1 452.971 110.8 458.371 104.3ZM470.891 93.6C469.491 93.8 467.191 90.6 468.591 90.2C470.891 89.8 475.991 89.2 481.991 88.7L483.791 84.8C487.191 78.1 492.791 65.8 495.891 65.8C497.491 65.8 498.591 67.7 498.791 69.1C499.391 72.5 495.091 81.7 492.091 87.9C500.791 87.4 509.091 87 513.491 87.3C515.791 87.5 518.391 89.7 517.491 91.8C516.791 92.6 515.991 91.9 515.891 91.1L515.691 91C510.891 90.7 500.191 91.1 489.791 91.8C486.091 98.2 482.191 104.3 478.091 109.6C476.891 112.8 475.791 118 477.391 118C482.691 118 493.691 106.6 496.491 104C497.491 103 499.291 106.2 498.691 107.1C497.191 109.2 484.691 122.3 479.191 122.3C476.391 122.3 474.091 119.4 473.691 116.9C473.191 113.6 473.791 108 480.291 92.6C476.691 92.9 473.491 93.3 470.891 93.6ZM486.591 88.3L487.591 88.2C489.191 85.7 493.491 76.5 494.791 72.5C492.491 75.8 489.891 81.3 486.591 88.3ZM482.091 98L485.491 92.2H484.791L482.091 98ZM498.72 119.7C496.42 119.7 493.42 116.4 493.02 114.3C492.32 110.2 496.42 102.5 498.52 99.5C499.22 98.3 502.32 102 501.72 103.1C499.72 106.7 496.72 112 496.72 115.3C500.72 115.3 507.72 110.2 512.52 105.8C513.32 105 515.22 108.6 514.22 109.9C512.12 112.1 502.92 119.7 498.72 119.7ZM501.12 93.6C501.92 92.3 502.82 90.6 504.02 89.3C505.12 88.2 508.02 91.9 507.12 92.8C506.22 93.9 505.62 95.9 504.32 97.2C503.02 98.4 500.42 94.7 501.12 93.6Z" fill="#231F20"/>
</svg>
