<svg width="34" height="34" viewBox="0 0 34 34" fill="none" xmlns="http://www.w3.org/2000/svg">
<path d="M16.6584 33.6169C25.8586 33.6169 33.3169 26.1772 33.3169 17C33.3169 7.8227 25.8586 0.383057 16.6584 0.383057C7.45824 0.383057 0 7.8227 0 17C0 26.1772 7.45824 33.6169 16.6584 33.6169Z" fill="#0C0C0C"/>
<path d="M12.1372 9.90366C12.8052 9.90366 13.408 9.96096 13.9591 10.0804C14.5071 10.1961 14.9747 10.3893 15.3698 10.6549C15.7588 10.9204 16.0632 11.2727 16.2813 11.7175C16.4942 12.1551 16.6009 12.7037 16.6009 13.352C16.6009 14.053 16.4414 14.6388 16.1223 15.1074C15.8007 15.5749 15.3284 15.9582 14.697 16.2563C15.5568 16.5028 16.1933 16.9367 16.6153 17.5535C17.0395 18.175 17.2471 18.9184 17.2471 19.7898C17.2471 20.496 17.1115 21.1046 16.8406 21.616C16.5672 22.1336 16.1949 22.5536 15.7359 22.8775C15.2734 23.204 14.7422 23.4437 14.1471 23.5997C13.5588 23.7557 12.9477 23.8342 12.322 23.8342H5.55273V9.90356L12.1372 9.90366ZM11.7395 15.5315C12.2842 15.5315 12.7353 15.4029 13.0926 15.1409C13.4463 14.8836 13.6178 14.458 13.6178 13.8742C13.6178 13.5498 13.5609 13.2822 13.4464 13.0745C13.3278 12.8663 13.1709 12.7036 12.9725 12.59C12.7757 12.4712 12.5535 12.3896 12.2957 12.3451C12.0424 12.2955 11.7768 12.2764 11.5049 12.2764H8.628V15.5315H11.7395ZM11.9093 21.4621C12.2127 21.4621 12.5007 21.4352 12.7715 21.3742C13.0465 21.3143 13.2904 21.2193 13.496 21.0787C13.7017 20.9439 13.872 20.7584 13.9958 20.5229C14.12 20.2894 14.1796 19.9867 14.1796 19.6199C14.1796 18.9018 13.9771 18.3925 13.5742 18.0825C13.1708 17.7777 12.6328 17.6258 11.9708 17.6258H8.6279V21.4621H11.9093Z" fill="white"/>
<path d="M21.6306 21.4157C22.0465 21.8207 22.6478 22.0247 23.4266 22.0247C23.9869 22.0247 24.4712 21.8837 24.8772 21.6016C25.2796 21.3206 25.5245 21.0199 25.6194 20.7079H28.0654C27.6723 21.9219 27.0757 22.7888 26.2621 23.3105C25.4578 23.8343 24.4768 24.0957 23.3339 24.0957C22.5373 24.0957 21.8206 23.967 21.1769 23.7134C20.5337 23.4572 19.996 23.0976 19.544 22.629C19.1033 22.1584 18.761 21.6015 18.5171 20.948C18.2757 20.2976 18.1541 19.578 18.1541 18.7979C18.1541 18.0437 18.2804 17.339 18.5275 16.6876C18.7797 16.0346 19.1282 15.4705 19.5866 14.9973C20.046 14.522 20.5907 14.1469 21.2252 13.8726C21.8596 13.5993 22.5592 13.4619 23.3341 13.4619C24.1896 13.4619 24.939 13.6262 25.5812 13.961C26.2213 14.2906 26.746 14.7379 27.1581 15.2979C27.5703 15.8563 27.8635 16.4954 28.0468 17.2124C28.2287 17.9273 28.2923 18.6754 28.24 19.4575H20.943C20.943 20.2551 21.2132 21.0107 21.6306 21.4157ZM24.8218 16.1159C24.492 15.7517 23.9327 15.5544 23.2505 15.5544C22.8067 15.5544 22.4394 15.6288 22.1453 15.7806C21.8579 15.9304 21.6222 16.1169 21.442 16.3365C21.2628 16.5597 21.1405 16.7952 21.0695 17.0474C20.998 17.2922 20.9556 17.5154 20.9427 17.7117H25.4618C25.3955 17.0055 25.1533 16.4832 24.8218 16.1159Z" fill="white"/>
<path d="M26.0357 10.8381H20.3747V12.2133H26.0357V10.8381Z" fill="white"/>
</svg>
