<svg width="35" height="34" viewBox="0 0 35 34" fill="none" xmlns="http://www.w3.org/2000/svg">
<path d="M17.5741 0.194092C26.8789 0.194092 34.4219 7.71829 34.4219 16.9999C34.4219 26.2815 26.8789 33.8057 17.5741 33.8057C8.26933 33.8057 0.726318 26.2815 0.726318 16.9999C0.726318 7.71829 8.26933 0.194092 17.5741 0.194092Z" fill="#0C0C0C"/>
<path d="M17.5726 20.1845L14.763 17.7312L6.72913 24.6005C7.02166 24.8708 7.41534 25.039 7.85052 25.039H27.2946C27.7279 25.039 28.1203 24.8708 28.4108 24.6005L20.3822 17.7312L17.5726 20.1845Z" fill="white"/>
<path d="M6.73303 9.29905L17.5726 18.5664L28.4154 9.29565" fill="white"/>
<path d="M6.21667 10.2781V23.7221L14.0572 17.0761L6.21667 10.2781Z" fill="white"/>
<path d="M28.9283 10.2732L21.0878 17.0759L28.9283 23.7219V10.2732Z" fill="white"/>
</svg>
