<svg width="35" height="36" viewBox="0 0 35 36" fill="none" xmlns="http://www.w3.org/2000/svg">
<g clip-path="url(#clip0_163_146)">
<path d="M17.3461 33.1506C25.7041 33.1506 32.4795 26.3751 32.4795 18.0172C32.4795 9.65924 25.7041 2.88379 17.3461 2.88379C8.98816 2.88379 2.21271 9.65924 2.21271 18.0172C2.21271 26.3751 8.98816 33.1506 17.3461 33.1506Z" fill="white"/>
<mask id="mask0_163_146" style="mask-type:luminance" maskUnits="userSpaceOnUse" x="0" y="0" width="35" height="36">
<path d="M34.6921 0.601318H0V35.4324H34.6921V0.601318Z" fill="white"/>
</mask>
<g mask="url(#mask0_163_146)">
<path d="M17.3623 0.567383C7.774 0.567383 0 8.34128 0 17.9302C0 27.5191 7.774 35.2936 17.3623 35.2936C26.9506 35.2936 34.7263 27.519 34.7263 17.9302C34.7263 8.34138 26.9518 0.567383 17.3623 0.567383ZM24.4185 25.7014V26.9025C24.4185 27.5656 23.881 28.1035 23.2174 28.1035H11.2088C9.8822 28.1035 8.8065 27.028 8.8065 25.7015V10.591C8.8065 9.26438 9.8822 8.18888 11.2088 8.18888H23.2174C23.8804 8.18888 24.4185 8.72688 24.4185 9.38988V25.7014ZM26.82 10.5909V26.9025C26.82 27.5656 26.2826 28.1035 25.6196 28.1035H25.2945C25.4997 27.7498 25.6196 27.34 25.6196 26.9025V9.38968C25.6196 8.95228 25.4997 8.54308 25.2945 8.18928H25.6196C26.2826 8.18928 26.82 8.72668 26.82 9.38968V10.5909Z" fill="#0C0C0C"/>
</g>
<path d="M20.3258 19.7271C20.3258 19.7271 19.873 19.1839 19.3722 19.5586C18.9986 19.8377 18.3276 20.4585 18.1666 20.6094C18.1666 20.6094 17.0446 20.0113 16.3811 19.4653C15.3976 18.6565 14.7403 17.6584 14.396 17.0909L14.1383 16.6055C14.2282 16.5088 14.9149 15.7735 15.2122 15.3738C15.5864 14.873 15.0443 14.4209 15.0443 14.4209C15.0443 14.4209 13.5182 12.8947 13.1706 12.5918C12.823 12.2884 12.4228 12.4567 12.4228 12.4567C11.6921 12.9291 10.9346 13.3401 10.8894 15.3144C10.8877 17.1632 12.2911 19.0692 13.8082 20.5455C15.3281 22.2124 17.4153 23.8832 19.4327 23.8809C21.4069 23.8368 21.8167 23.0788 22.2893 22.348C22.2893 22.348 22.4583 21.9479 22.1548 21.6003C21.8519 21.2521 20.3258 19.7271 20.3258 19.7271Z" fill="#0C0C0C"/>
</g>
<defs>
<clipPath id="clip0_163_146">
<rect width="34.7263" height="34.8651" fill="white" transform="translate(0 0.567383)"/>
</clipPath>
</defs>
</svg>
