<?xml version="1.0" encoding="UTF-8"?><svg xmlns="http://www.w3.org/2000/svg" viewBox="0 0 462.7309 425.9533"><g id="a"><path d="m5.6338,221.7116s2.5399,78.7366,68.2673,131.2164c65.7273,52.4795,156.8051,56.2378,230.537,61.223,73.7317,4.9851,130.3642-36.7542,138.8997-99.8495,8.535-63.0949-47.805-81.6167-78.3729-153.4386-30.568-71.8224-27.8482-95.431-92.5272-139.6046C207.7587-22.9155,106.5798,4.2088,53.5314,79.8853.483,155.562,5.6338,221.7116,5.6338,221.7116Z" style="fill:#92e3a9;"/><path d="m5.6338,221.7116s2.5399,78.7366,68.2673,131.2164c65.7273,52.4795,156.8051,56.2378,230.537,61.223,73.7317,4.9851,130.3642-36.7542,138.8997-99.8495,8.535-63.0949-47.805-81.6167-78.3729-153.4386-30.568-71.8224-27.8482-95.431-92.5272-139.6046C207.7587-22.9155,106.5798,4.2088,53.5314,79.8853.483,155.562,5.6338,221.7116,5.6338,221.7116Z" style="fill:#fff; opacity:.7;"/></g><g id="b"><path d="m439.188,77.4201c.6441-3.6537,1.5737-12.7205-3.9414-17.168-7.0027-5.6474-11.9723,4.5178-18.0716-3.3885-6.0991-7.9063-7.9063-25.0744-25.978-24.8485-18.0716.2259-19.427,10.3912-19.427,13.7796s-5.4215,5.8733-6.551,5.8733-7.4545-2.9367-9.7135,3.6143c-2.2589,6.551-.7273,10.3403-4.3168,10.4788-3.5895.1383-8.0481-4.7579-12.9346-2.3097-4.8864,2.448-4.8864,7.6436-6.9195,9.4507-2.033,1.8073-5.4214-1.3553-9.9393.4519-2.7378,1.095-3.5634,2.8502-3.7924,4.0661h121.5851Z" style="fill:#fff; stroke:#263238; stroke-miterlimit:10;"/><path d="m85.8774,69.8595c.4517-2.5625,1.1037-8.9216-2.7643-12.0409-4.9114-3.9608-8.3969,3.1686-12.6747-2.3765-4.2776-5.5452-5.5451-17.5861-18.2198-17.4277s-13.6253,7.2879-13.6253,9.6644-3.8024,4.1193-4.5945,4.1193-5.2283-2.0596-6.8127,2.5349c-1.5843,4.5946-.5101,7.2523-3.0276,7.3494-2.5175.097-5.6446-3.337-9.0717-1.62-3.4272,1.717-3.4272,5.361-4.8531,6.6284-1.4259,1.2675-3.8023-.9506-6.971.3169-1.9201.768-2.4992,1.999-2.6598,2.8518h85.2745Z" style="fill:#fff; stroke:#263238; stroke-miterlimit:10;"/><path d="m332.8774,198.8595c.4517-2.5625,1.1037-8.9216-2.7643-12.0409-4.9114-3.9608-8.3969,3.1686-12.6747-2.3765-4.2776-5.5452-5.5451-17.5861-18.2198-17.4277s-13.6253,7.2879-13.6253,9.6644-3.8024,4.1193-4.5945,4.1193-5.2283-2.0596-6.8127,2.5349c-1.5843,4.5946-.5101,7.2523-3.0276,7.3494-2.5175.097-5.6446-3.337-9.0717-1.62-3.4272,1.717-3.4272,5.361-4.8531,6.6284-1.4259,1.2675-3.8023-.9506-6.971.3169-1.9201.768-2.4992,1.999-2.6598,2.8518h85.2745Z" style="fill:#fff; stroke:#263238; stroke-miterlimit:10;"/><path d="m393.6829,40.415c.2039-1.157.4983-4.0281-1.2481-5.4364-2.2175-1.7883-3.7912,1.4306-5.7225-1.073-1.9314-2.5036-2.5036-7.94-8.2262-7.8685-5.7225.0715-6.1517,3.2905-6.1517,4.3635s-1.7168,1.8598-2.0744,1.8598-2.3606-.9299-3.0759,1.1445c-.7154,2.0744-.2303,3.2744-1.367,3.3182-1.1367.0437-2.5485-1.5066-4.0958-.7315-1.5473.7752-1.5473,2.4205-2.1911,2.9928-.6438.5722-1.7168-.4292-3.1474.143-.867.3468-1.1285.9025-1.2009,1.2876h38.501Z" style="fill:#fff; stroke:#263238; stroke-miterlimit:10;"/></g><g id="c"><line x1="107.5225" y1="201.0819" x2="107.5225" y2="196.5216" style="fill:none; stroke:#263238; stroke-miterlimit:10;"/><g style="opacity:.3;"><circle cx="368.0305" cy="85.3441" r="3.8199" style="fill:none; stroke:#000; stroke-linecap:round; stroke-linejoin:round;"/><circle cx="32.8353" cy="150.2822" r="3.8199" style="fill:none; stroke:#000; stroke-linecap:round; stroke-linejoin:round;"/><circle cx="320.2819" cy="347.9614" r="3.8199" style="fill:none; stroke:#000; stroke-linecap:round; stroke-linejoin:round;"/><circle cx="39.5201" cy="316.4473" r="3.8199" style="fill:none; stroke:#000; stroke-linecap:round; stroke-linejoin:round;"/><line x1="298.5493" y1="151.9604" x2="290.446" y2="160.0636" style="fill:none; stroke:#000; stroke-linecap:round; stroke-linejoin:round;"/><line x1="298.5493" y1="160.0636" x2="290.446" y2="151.9604" style="fill:none; stroke:#000; stroke-linecap:round; stroke-linejoin:round;"/><line x1="269.4367" y1="384.9736" x2="277.5399" y2="393.0768" style="fill:none; stroke:#000; stroke-linecap:round; stroke-linejoin:round;"/><line x1="277.5399" y1="384.9736" x2="269.4367" y2="393.0768" style="fill:none; stroke:#000; stroke-linecap:round; stroke-linejoin:round;"/><line x1="14.4591" y1="202.5739" x2="22.5623" y2="210.6771" style="fill:none; stroke:#000; stroke-linecap:round; stroke-linejoin:round;"/><line x1="22.5623" y1="202.5739" x2="14.4591" y2="210.6771" style="fill:none; stroke:#000; stroke-linecap:round; stroke-linejoin:round;"/><line x1="313.3654" y1="13.4895" x2="321.4686" y2="21.5927" style="fill:none; stroke:#000; stroke-linecap:round; stroke-linejoin:round;"/><line x1="321.4686" y1="13.4895" x2="313.3654" y2="21.5927" style="fill:none; stroke:#000; stroke-linecap:round; stroke-linejoin:round;"/><circle cx="373.0305" cy="323.3441" r="3.8199" style="fill:none; stroke:#000; stroke-linecap:round; stroke-linejoin:round;"/><circle cx="422.223" cy="210.0364" r="3.8199" style="fill:none; stroke:#000; stroke-linecap:round; stroke-linejoin:round;"/><line x1="318.3654" y1="251.4895" x2="326.4686" y2="259.5927" style="fill:none; stroke:#000; stroke-linecap:round; stroke-linejoin:round;"/><line x1="326.4686" y1="251.4895" x2="318.3654" y2="259.5927" style="fill:none; stroke:#000; stroke-linecap:round; stroke-linejoin:round;"/><line x1="406.1198" y1="186.9332" x2="414.223" y2="195.0364" style="fill:none; stroke:#000; stroke-linecap:round; stroke-linejoin:round;"/><line x1="414.223" y1="186.9332" x2="406.1198" y2="195.0364" style="fill:none; stroke:#000; stroke-linecap:round; stroke-linejoin:round;"/><line x1="116.6411" y1="20.1743" x2="124.7444" y2="28.2775" style="fill:none; stroke:#000; stroke-linecap:round; stroke-linejoin:round;"/><line x1="124.7444" y1="20.1743" x2="116.6411" y2="28.2775" style="fill:none; stroke:#000; stroke-linecap:round; stroke-linejoin:round;"/></g></g><g id="d"><rect x="60.0925" y="36.0239" width="201.8264" height="373.8904" style="fill:#92e3a9;"/><polygon points="200.5489 36.0239 60.0925 281.0592 60.0925 368.7273 250.801 36.0239 200.5489 36.0239" style="fill:#fff; opacity:.3;"/><polygon points="261.9189 189.1639 258.5816 186.7548 137.1809 401.2104 140.4915 409.9143 261.9189 409.9143 261.9189 189.1639" style="fill:#fff; opacity:.3;"/><path d="m267.9785,109.5867c1.3769,0,2.4931-1.1162,2.4931-2.493v-24.9306c0-1.3769-1.1162-2.493-2.4931-2.493-.1602,0-.3159.0182-.4677.0471v-46.6322c0-8.8773-7.1967-16.074-16.0742-16.074H74.2864c-8.8775,0-16.0742,7.1967-16.0742,16.074v376.2944c0,8.8773,7.1967,16.0739,16.0742,16.0739h177.1502c8.8775,0,16.0742-7.1966,16.0742-16.0739v-228.9263c.1518.0289.3075.0472.4677.0472,1.3769,0,2.4931-1.1162,2.4931-2.4931v-24.9305c0-1.3769-1.1162-2.4931-2.4931-2.4931-.1602,0-.3159.0182-.4677.0471v-5.6343c.1518.0289.3075.0471.4677.0471,1.3769,0,2.4931-1.1162,2.4931-2.4931v-24.9305c0-1.3769-1.1162-2.493-2.4931-2.493-.1602,0-.3159.0182-.4677.0471v-5.6344c.1518.0289.3075.0471.4677.0471Zm-9.7762,291.6237H67.5204V44.7486h190.6819v356.4618Z" style="fill:#263238;"/></g><g id="e"><path d="m192.882,298.7711v-11.0485l-11.5098-1.3108c-.3437-2.248-.89-4.429-1.6039-6.5347l9.5884-7.0175-5.6036-9.5683-10.6439,4.5431c-1.4226-1.7515-2.9929-3.3796-4.6952-4.8664l4.7479-10.8107-9.7057-5.5243-6.9093,9.1753c-2.1006-.8104-4.2835-1.4583-6.5404-1.909l-1.3696-11.6879h-11.2071l-1.3296,11.3469c-2.2802.3388-4.4927.8774-6.6286,1.5812l-7.1182-9.4527-9.7057,5.5243,4.6083,10.4932c-1.7766,1.4025-3.4281,2.9505-4.9362,4.6287l-10.966-4.6806-5.6035,9.5683,9.3069,6.8115c-.822,2.0708-1.4792,4.2228-1.9364,6.4478l-11.8557,1.3502v11.0484l11.5099,1.3109c.3437,2.2479.89,4.429,1.6038,6.5347l-9.5883,7.0175,5.6035,9.5683,10.6439-4.5432c1.4226,1.7516,2.9929,3.3797,4.6952,4.8664l-4.7478,10.8108,9.7057,5.5242,6.9092-9.1752c2.1006.8104,4.2835,1.4583,6.5405,1.909l1.3695,11.6879h11.2071l1.3296-11.347c2.2803-.3388,4.4926-.8773,6.6286-1.5811l7.1183,9.4526,9.7056-5.5242-4.6084-10.4933c1.7767-1.4024,3.4282-2.9505,4.9363-4.6286l10.966,4.6806,5.6036-9.5683-9.307-6.8115c.822-2.0709,1.4793-4.2228,1.9364-6.4479l11.8557-1.3501Zm-50.8084,19.8058c-14.7203,0-26.6535-11.7643-26.6535-26.2763s11.9332-26.2762,26.6535-26.2762,26.6534,11.7643,26.6534,26.2762-11.9331,26.2763-26.6534,26.2763Z" style="fill:none; stroke:#263238; stroke-miterlimit:10;"/><path d="m242.5073,243.5884v-7.1401l-7.4383-.8471c-.2221-1.4528-.5751-2.8623-1.0365-4.2232l6.1965-4.535-3.6213-6.1836-6.8787,2.936c-.9193-1.1319-1.9341-2.1841-3.0342-3.1449l3.0683-6.9865-6.2724-3.5701-4.4651,5.9296c-1.3576-.5237-2.7683-.9425-4.2268-1.2337l-.8851-7.5534h-7.2427l-.8592,7.333c-1.4736.219-2.9035.567-4.2838,1.0219l-4.6002-6.1089-6.2723,3.5701,2.9781,6.7813c-1.1481.9064-2.2154,1.9068-3.19,2.9913l-7.0868-3.0248-3.6214,6.1835,6.0147,4.402c-.5313,1.3383-.956,2.7291-1.2515,4.167l-7.6617.8725v7.1402l7.4383.8471c.2221,1.4527.5752,2.8623,1.0365,4.2231l-6.1966,4.535,3.6214,6.1836,6.8786-2.936c.9194,1.1319,1.9342,2.1841,3.0343,3.1449l-3.0682,6.9865,6.2723,3.5701,4.4651-5.9295c1.3575.5237,2.7682.9424,4.2268,1.2337l.8851,7.5533h7.2426l.8593-7.333c1.4737-.219,2.9034-.5671,4.2838-1.0218l4.6002,6.1088,6.2723-3.5701-2.9782-6.7813c1.1482-.9063,2.2155-1.9068,3.1901-2.9913l7.0868,3.0248,3.6214-6.1835-6.0147-4.402c.5312-1.3383.9559-2.729,1.2514-4.1669l7.6618-.8726Zm-32.8352,12.7996c-9.5131,0-17.225-7.6027-17.225-16.9812s7.7119-16.9811,17.225-16.9811,17.225,7.6028,17.225,16.9811-7.7119,16.9812-17.225,16.9812Z" style="fill:none; stroke:#263238; stroke-miterlimit:10;"/><path d="m357.4169,141.9796l2.6129-7.2733-6.0448-3.2962-4.6988,6.1358c-1.3661-.3162-2.7474-.4659-4.1199-.4453l-3.2931-6.9856-6.6049,1.9436,1.0154,7.6558c-1.1653.7261-2.245,1.6001-3.2222,2.6059l-7.2732-2.6131-3.2962,6.0447,6.1359,4.6989c-.3162,1.366-.466,2.7473-.4453,4.1199l-6.9858,3.2929,1.9436,6.6051,7.6558-1.0154c.726,1.1651,1.6001,2.2452,2.6058,3.2223l-2.613,7.2731,6.0448,3.2962,4.6989-6.1359c1.366.3162,2.7473.4661,4.1199.4454l3.2929,6.9856,6.605-1.9436-1.0154-7.6559c1.1652-.7259,2.2451-1.6,3.2222-2.6057l7.2733,2.6132,3.2962-6.0448-6.1359-4.6988c.3162-1.3661.4661-2.7475.4452-4.1202l6.9858-3.2928-1.9436-6.6051-7.6558,1.0154c-.1784-.2863-.3659-.5676-.5619-.8434m-22.2289,17.1599c-2.9326-3.3357-3.6301-8.2766-1.3802-12.4026,2.8783-5.2787,9.4911-7.2244,14.7697-4.346,5.2787,2.8784,7.2244,9.491,4.3459,14.7697-2.5973,4.7632-8.2353,6.8127-13.19,5.0526" style="fill:none; opacity:.3; stroke:#000; stroke-linecap:round; stroke-linejoin:round;"/><path d="m333.8775,124.3111l4.0452,2.2058,3.1446-4.1062c.9141.2115,1.8385.3119,2.757.298l2.2037,4.6749,4.4201-1.3008-.6794-5.1233c.7796-.4858,1.5023-1.0708,2.1562-1.7437l4.8674,1.7487,2.2058-4.0452-4.1062-3.1446c.2115-.9141.3119-1.8385.2979-2.757l4.6749-2.2037-1.3006-4.4202-5.1233.6795c-.4858-.7797-1.0709-1.5023-1.7438-2.1563l1.7487-4.8673-4.0453-2.2058-3.1444,4.1062c-.9142-.2117-1.8385-.3119-2.7572-.298l-2.2035-4.6749-4.4202,1.3007.6795,5.1234c-.7798.4859-1.5025,1.0707-2.1564,1.7437l-4.8673-1.7486-2.2058,4.0451,4.1062,3.1445c-.2115.9142-.3117,1.8385-.298,2.7571l-4.6748,2.2037,1.3006,4.4202,5.1232-.6796c.486.7798,1.0708,1.5025,1.7439,2.1564l-1.7487,4.8673Zm11.9045-6.1608c-1.8051.549-3.8208.4009-5.6081-.5738-3.5326-1.9263-4.8347-6.3514-2.9085-9.8839,1.9263-3.5325,6.3514-4.8346,9.884-2.9083,3.5325,1.9263,4.8346,6.3514,2.9083,9.8838-.2088.3831-.447.7399-.7103,1.0691" style="fill:none; opacity:.3; stroke:#000; stroke-linecap:round; stroke-linejoin:round;"/></g><g id="f"><path d="m82.4994,17.011v338.6166c0,3.7676,4.9332,5.1824,6.93,1.9875h0c.3725-.596.57-1.2847.57-1.9875V17.011" style="fill:none; stroke:#263238; stroke-miterlimit:10;"/><path d="m109.3599,115.0286s.1532.7656.7656,1.5312c.6125.7656,1.6844.3063,1.6844,1.225s-1.5312,2.1436-1.5312,2.1436c0,0-.4594,4.8999-1.3781,6.4311s-5.5123.1531-5.5123.1531l-1.225,3.828-13.3214-1.0719.7656-5.0529-1.3781-7.656s.6125-3.0624,3.0624-4.1342c2.4499-1.0719,12.2496-.3063,14.087,0,1.8375.3062,3.9811,2.603,3.9811,2.603Z" style="fill:#fff; stroke:#263238; stroke-miterlimit:10;"/><path d="m88.2294,116.5598s.6125,6.1248,1.3781,7.656,3.3686,2.1437,7.1966,1.5312,5.5123-1.8374,5.9717-3.3686,1.3781-4.2874,1.9906-4.4405c.6124-.1531.7656-.1531,1.0718.7656.3062.9187-.7656,1.8374.3062.9187,1.0719-.9187,1.3781-4.8998,1.3781-4.8998,0,0-9.3403,1.2249-13.3214,1.2249s-5.8185-.3062-5.8185-.3062l-.1532.9187Z" style="fill:#263238; stroke:#263238; stroke-miterlimit:10;"/><path d="m87.617,116.4067s-.3063,6.8904,3.6748,9.3403,8.881-.1531,10.7184-1.8374c1.8374-1.6844,2.7562-6.8904,2.7562-6.8904l-1.8375.1531s.6125,3.828-3.9811,5.2061c-4.5936,1.378-5.9717,1.0718-7.3497,0-1.3781-1.0719-3.3687-5.8186-3.3687-5.8186l-.6124-.1531Z" style="fill:#fff; stroke:#263238; stroke-miterlimit:10;"/><path d="m87.7701,109.6694s.1531,5.2061-.3063,5.9717l-.4593.7656s2.603,2.7561,11.6371,2.1437c9.034-.6125,14.8526-4.8999,14.8526-4.8999l-2.9093-2.7561s.1531-5.8186-3.9811-9.1872c-4.1342-3.3686-13.7808-1.2249-16.2307,1.8374-2.4499,3.0624-2.7561,5.053-2.603,6.1248Z" style="fill:#fff; stroke:#263238; stroke-miterlimit:10;"/><path d="m73.8362,166.3237l-.3063,6.1248,29.8584.6125-.6125-5.8186s-2.4499-1.2249-9.9528-2.2968c-7.5028-1.0718-15.0057-.3062-16.2307-.3062s-2.603.3062-2.603.3062l-.1531,1.3781Z" style="fill:#92e3a9; stroke:#263238; stroke-miterlimit:10;"/><polygon points="153.1654 103.5027 148.5878 103.5027 148.1518 103.5027 143.5742 103.5027 147.3184 105.9997 147.3184 122.3948 149.2658 122.3948 149.2658 106.0276 149.4212 105.9997 153.1654 103.5027" style="fill:#fff; stroke:#263238; stroke-miterlimit:10;"/><rect x="133.438" y="102.4128" width="29.4276" height="1.6349" style="fill:#fff; stroke:#263238; stroke-miterlimit:10;"/><path d="m77.0104,131.3682s-4.0595,2.1366-4.0595,5.7689-7.6918,16.6656-7.6918,23.7164,4.4868,5.9826,7.4781,4.4869c2.9913-1.4956,5.9825-4.0596,5.9825-4.0596l1.7093-28.2033s-.4273-1.923-3.4186-1.7093Z" style="fill:#fff; stroke:#263238; stroke-miterlimit:10;"/><path d="m77.0104,131.3682s-4.0595,2.1366-4.0595,5.7688c0,1.5423-1.3877,4.7816-2.9835,8.536l9.3374,5.9543,1.1242-18.5498s-.4273-1.923-3.4186-1.7093Z" style="fill:#fff; stroke:#263238; stroke-miterlimit:10;"/><path d="m103.6945,131.1062s-.7656-1.6843-2.4499-2.4499-9.1872-2.1437-11.7902-2.1437-4.1342,2.4499-4.1342,2.4499l18.3743,2.1437Z" style="fill:#fff; stroke:#263238; stroke-miterlimit:10;"/><path d="m87.0045,128.5031s-4.4405.7656-8.7278,2.2968c-4.2874,1.5312-4.1343,5.9717-4.2874,9.9528s-.4594,19.2931-.6125,21.4368c-.1531,2.1436-.1531,3.828.4594,4.1342s10.8715-1.0718,16.9963-.3062c6.1248.7656,10.4121,2.603,11.9433,1.6843,1.5312-.9187,1.8374-3.2155,1.8374-4.8999s6.4311-14.8526,6.4311-14.8526c0,0,23.5804,4.4405,24.0397,4.2874.4594-.1531,13.4746-24.1929,13.4746-24.1929,0,0,3.3686-2.2968,3.828-3.0624.4593-.7656-.1532-4.8998-.1532-5.3592s.1532-1.9905.1532-3.0624-1.8375-1.9905-2.1437-1.5312c-.3063.4594-.9187.9187-.9187.9187l-1.5312,2.1437s-.3063-2.603-.7656-3.2155c-.4594-.6125-2.2968,0-1.5312,1.225.7656,1.2249.4593,1.9905,0,2.9092-.4594.9187-.9187,2.2968-.9187,4.4405s-.7656,5.0529-.7656,5.0529c0,0-11.3309,10.1059-12.5558,11.3309-1.225,1.225-1.6844,1.8374-1.6844,1.8374,0,0-11.3308-6.2779-14.087-7.5028-2.7561-1.225-11.7902-3.0624-11.7902-3.0624,0,0-11.484-2.6031-16.69-2.6031Z" style="fill:#fff; stroke:#263238; stroke-miterlimit:10;"/><path d="m115.4847,134.1686c-2.7561-1.225-11.7902-3.0624-11.7902-3.0624,0,0-11.484-2.6031-16.69-2.6031,0,0-4.4405.7656-8.7278,2.2968-4.2874,1.5312-4.1343,5.9717-4.2874,9.9528s-.4593,19.2931-.6125,21.4368c-.1531,2.1436-.1531,3.828.4594,4.1342s10.8715-1.0719,16.9963-.3062c6.1248.7656,10.4121,2.603,11.9433,1.6843,1.5312-.9187,1.8374-3.2156,1.8374-4.8998s6.431-14.8527,6.431-14.8527c0,0,3.4924.6576,7.8144,1.4579l4.1002-11.3544c-3.0088-1.627-6.1827-3.3103-7.4741-3.8842Z" style="fill:#fff; stroke:#263238; stroke-miterlimit:10;"/><path d="m98.2157,167.4225c-1.4767-2.683-4.3596-8.3043-7.5364-16.5639-3.7274-9.6913-5.539-18.7769-6.0898-21.859-.974.221-2.1673.516-3.45.8851l.1996.1496s.0529.1999.1528.5714c1.0497,3.9044,7.2843,26.762,11.7521,35.7785,1.8944.334,3.5617.7274,4.9717,1.0383Z" style="fill:#92e3a9; stroke:#263238; stroke-miterlimit:10;"/><path d="m75.8624,166.299c1.1091-.0716,2.5889-.1866,4.2386-.2901l24.8864-34.6311c-.7937-.17-1.2928-.2716-1.2929-.2716l-2.7561-.3063-25.076,35.4991Z" style="fill:#92e3a9; stroke:#263238; stroke-miterlimit:10;"/><path d="m119.619,192.9665s-47.4671.7656-48.6921,0c-1.2249-.7656-3.6749-3.0624-2.4499-9.034,1.225-5.9717,5.0529-11.484,5.0529-11.484l29.8584.6125,1.9905,5.206s12.8621,2.6031,17.4557,5.9717-1.5312,9.1872-1.5312,9.1872" style="fill:#263238; stroke:#263238; stroke-miterlimit:10;"/><path d="m105.3788,178.267s.9187,3.9811,1.225,5.3592" style="fill:#fff; stroke:#263238; stroke-miterlimit:10;"/><path d="m71.08,194.6508l3.828,37.2081,9.0341.6125s1.0718-28.9396,1.0718-29.5521.9187-8.1153.9187-8.1153l-14.8526-.1532Z" style="fill:#263238; stroke:#263238; stroke-miterlimit:10;"/><path d="m74.908,231.8589s-.9187,7.5029-.1531,8.2685,7.5029.9187,8.4216,0c.9187-.9188.6125-8.2685.6125-8.2685h-8.881Z" style="fill:#fff; stroke:#263238; stroke-miterlimit:10;"/><path d="m83.7488,237.5002l-9.2881-.1106c-.0369,1.3377.0217,2.4652.2942,2.7377.7656.7657,7.5029.9188,8.4216,0,.3124-.3124.483-1.3692.5723-2.6271Z" style="fill:#fff; stroke:#263238; stroke-miterlimit:10;"/><path d="m106.7569,194.9571l-4.2873,37.6674h8.5747s1.378-3.6749,1.378-4.4405-.7656-3.0624-.7656-3.0624l8.2685-29.5521-13.1683-.6124Z" style="fill:#263238; stroke:#263238; stroke-miterlimit:10;"/><path d="m111.0443,232.6245s2.9092,2.7562,4.7467,3.3686c1.8374.6125,4.2873,1.6844,4.2873,2.6031s-4.5936,1.378-7.9622,1.378-10.4121-1.378-10.4121-1.378l.7656-5.9717h8.5747Z" style="fill:#fff; stroke:#263238; stroke-miterlimit:10;"/><path d="m120.0783,238.5962c0-.1952-.1156-.3974-.3075-.6006-1.4126.2256-3.4099.4475-5.8173.4475-3.9975,0-9.9296-1.4265-11.9796-1.952l-.2699,2.1051s7.0435,1.378,10.4121,1.378,7.9622-.4593,7.9622-1.378Z" style="fill:#fff; stroke:#263238; stroke-miterlimit:10;"/><path d="m121.9158,217.3125s4.1342-10.4121,5.8185-16.0775c1.6843-5.6655,2.9093-3.2155,2.9093-1.0719s-6.7373,17.3026-7.0435,18.5275c-.3063,1.225-2.7562,1.0719-1.6843-1.3781Z" style="fill:#fff; stroke:#263238; stroke-miterlimit:10;"/><polygon points="126.0117 236.6056 109.3982 236.6056 105.8382 213.1783 129.5717 213.1783 126.0117 236.6056" style="fill:#fff; stroke:#263238; stroke-miterlimit:10;"/><path d="m107.2163,213.0252s1.318-12.095,10.7183-11.9433c9.4935.1531,10.2591,11.9433,10.2591,11.9433" style="fill:none; stroke:#263238; stroke-miterlimit:10;"/><rect x="59.9023" y="192.6603" width="64.7696" height="3.5217" style="fill:#fff; stroke:#263238; stroke-miterlimit:10;"/><rect x="110.2787" y="192.6603" width="14.3932" height="3.5217" style="fill:#fff; stroke:#263238; stroke-miterlimit:10;"/><line x1="132.8264" y1="75.8223" x2="132.8264" y2="71.4474" style="fill:none; stroke:#263238; stroke-miterlimit:10;"/><line x1="132.8264" y1="100.2703" x2="132.8264" y2="78.9105" style="fill:none; stroke:#263238; stroke-miterlimit:10;"/><line x1="163.1933" y1="100.5276" x2="163.1933" y2="85.3441" style="fill:none; stroke:#263238; stroke-miterlimit:10;"/></g><g id="g"><polygon points="194.3364 425.4533 186.5784 425.4533 196.9223 353.3423 204.6804 353.3423 194.3364 425.4533" style="fill:#263238; stroke:#263238; stroke-miterlimit:10;"/><polygon points="209.8523 425.4533 217.6102 425.4533 207.2662 353.3423 199.5083 353.3423 209.8523 425.4533" style="fill:#fff; stroke:#263238; stroke-miterlimit:10;"/><polygon points="304.4255 425.4533 296.6676 425.4533 307.0116 353.3423 314.7696 353.3423 304.4255 425.4533" style="fill:#263238; stroke:#263238; stroke-miterlimit:10;"/><polygon points="319.9415 425.4533 327.6995 425.4533 317.3555 353.3423 309.5976 353.3423 319.9415 425.4533" style="fill:#fff; stroke:#263238; stroke-miterlimit:10;"/><rect x="177.3927" y="342.0364" width="147.9713" height="14.3458" style="fill:#92e3a9; stroke:#263238; stroke-miterlimit:10;"/><rect x="180.9995" y="342.0364" width="147.9713" height="14.3458" style="fill:#92e3a9; stroke:#263238; stroke-miterlimit:10;"/><polygon points="183.4213 356.3822 195.9818 356.3822 202.4718 342.0364 189.9113 342.0364 183.4213 356.3822" style="fill:#263238;"/><polygon points="233.1342 342.0364 220.5738 342.0364 214.0837 356.3822 226.6443 356.3822 233.1342 342.0364" style="fill:#263238;"/><polygon points="325.1215 342.0364 312.561 342.0364 306.071 356.3822 318.6315 356.3822 325.1215 342.0364" style="fill:#263238;"/><polygon points="294.4591 342.0364 281.8986 342.0364 275.4086 356.3822 287.9691 356.3822 294.4591 342.0364" style="fill:#263238;"/><polygon points="263.7967 342.0364 251.2362 342.0364 244.7462 356.3822 257.3067 356.3822 263.7967 342.0364" style="fill:#263238;"/><line x1="328.1628" y1="348.4003" x2="303.6742" y2="348.4003" style="fill:none; stroke:#263238; stroke-miterlimit:10;"/><line x1="327.7332" y1="350.7994" x2="323.8665" y2="350.7994" style="fill:none; stroke:#263238; stroke-miterlimit:10;"/><line x1="180.3722" y1="350.1997" x2="204.8608" y2="350.1997" style="fill:none; stroke:#263238; stroke-miterlimit:10;"/><line x1="180.8018" y1="347.5006" x2="211.7347" y2="347.5006" style="fill:none; stroke:#263238; stroke-miterlimit:10;"/></g><g id="h"><rect x="327.544" y="422.6235" width="37.73" height="2.8298" style="fill:#263238; stroke:#263238; stroke-linecap:round; stroke-linejoin:round;"/><polygon points="358.907 422.5444 333.9109 422.5444 343.7094 369.2506 349.1086 369.2506 358.907 422.5444" style="fill:#92e3a9; stroke:#263238; stroke-linecap:round; stroke-linejoin:round;"/><polygon points="340.0675 389.0589 352.7505 389.0589 351.5365 382.4561 341.2814 382.4561 340.0675 389.0589" style="fill:#fff; stroke:#263238; stroke-linecap:round; stroke-linejoin:round;"/><line x1="355.1501" y1="413.651" x2="355.777" y2="417.2934" style="fill:#92e3a9; stroke:#263238; stroke-linecap:round; stroke-linejoin:round;"/><line x1="348.0142" y1="372.1949" x2="354.3604" y2="409.0634" style="fill:#92e3a9; stroke:#263238; stroke-linecap:round; stroke-linejoin:round;"/></g><g id="i"><line x1="418.3689" y1="280.1896" x2="429.8266" y2="389.9778" style="fill:none; stroke:#263238; stroke-miterlimit:10; stroke-width:2px;"/><line x1="427.98" y1="368.9671" x2="422.7858" y2="363.4809" style="fill:none; stroke:#263238; stroke-miterlimit:10; stroke-width:2px;"/><path d="m424.3638,365.1247s.1487-2.4269-2.0673-4.406c-1.3333-1.1907-8.35-4.1426-9.0159-1.6712-.7242,2.6879,6.4579,7.9665,11.0832,6.0772Z" style="fill:#92e3a9; stroke:#263238; stroke-miterlimit:10;"/><line x1="424.3638" y1="365.1247" x2="417.6839" y2="360.9621" style="fill:none; stroke:#263238; stroke-miterlimit:10; stroke-width:.5px;"/><line x1="429.2831" y1="381.4531" x2="424.0888" y2="375.967" style="fill:none; stroke:#263238; stroke-miterlimit:10; stroke-width:2px;"/><path d="m425.6669,377.6107s.1487-2.4268-2.0674-4.4058c-1.3332-1.1908-8.3499-4.1427-9.0159-1.6713-.7241,2.6877,6.4579,7.9665,11.0833,6.0771Z" style="fill:#92e3a9; stroke:#263238; stroke-miterlimit:10;"/><line x1="425.6669" y1="377.6107" x2="418.9869" y2="373.448" style="fill:none; stroke:#263238; stroke-miterlimit:10; stroke-width:.5px;"/><line x1="424.8002" y1="338.4988" x2="419.606" y2="333.0126" style="fill:none; stroke:#263238; stroke-miterlimit:10; stroke-width:2px;"/><path d="m421.1841,334.6564s.1486-2.4268-2.0673-4.406c-1.3333-1.1906-8.35-4.1426-9.016-1.6713-.7241,2.6878,6.4578,7.9666,11.0833,6.0773Z" style="fill:#92e3a9; stroke:#263238; stroke-miterlimit:10;"/><line x1="421.1841" y1="334.6564" x2="414.5041" y2="330.4936" style="fill:none; stroke:#263238; stroke-miterlimit:10; stroke-width:.5px;"/><line x1="426.1034" y1="350.9848" x2="420.9091" y2="345.4987" style="fill:none; stroke:#263238; stroke-miterlimit:10; stroke-width:2px;"/><path d="m422.4872,347.1424s.1486-2.4268-2.0674-4.406c-1.3332-1.1907-8.35-4.1425-9.0158-1.6713-.7242,2.6879,6.4578,7.9666,11.0832,6.0773Z" style="fill:#92e3a9; stroke:#263238; stroke-miterlimit:10;"/><line x1="422.4872" y1="347.1424" x2="415.8073" y2="342.9797" style="fill:none; stroke:#263238; stroke-miterlimit:10; stroke-width:.5px;"/><line x1="422.6835" y1="318.216" x2="417.4892" y2="312.7298" style="fill:none; stroke:#263238; stroke-miterlimit:10; stroke-width:2px;"/><path d="m419.0673,314.3736s.1486-2.4268-2.0672-4.406c-1.3333-1.1906-8.3501-4.1426-9.016-1.6711-.7242,2.6877,6.4578,7.9664,11.0832,6.0771Z" style="fill:#92e3a9; stroke:#263238; stroke-miterlimit:10;"/><line x1="419.0673" y1="314.3736" x2="412.3873" y2="310.211" style="fill:none; stroke:#263238; stroke-miterlimit:10; stroke-width:.5px;"/><line x1="420.5574" y1="297.8447" x2="415.3632" y2="292.3585" style="fill:none; stroke:#263238; stroke-miterlimit:10; stroke-width:2px;"/><path d="m416.9414,294.0023s.1486-2.4268-2.0674-4.4058c-1.3332-1.1908-8.3499-4.1428-9.0159-1.6715-.7241,2.6879,6.4579,7.9667,11.0833,6.0773Z" style="fill:#92e3a9; stroke:#263238; stroke-miterlimit:10;"/><line x1="416.9414" y1="294.0023" x2="410.2614" y2="289.8395" style="fill:none; stroke:#263238; stroke-miterlimit:10; stroke-width:.5px;"/><line x1="427.1069" y1="361.5795" x2="431.0565" y2="355.139" style="fill:none; stroke:#263238; stroke-miterlimit:10; stroke-width:2px;"/><path d="m429.8516,357.0731s-.6464-2.3438,1.1133-4.7377c1.0586-1.4404,7.3147-5.7775,8.4765-3.497,1.2635,2.4804-4.6738,9.1283-9.5898,8.2347Z" style="fill:#92e3a9; stroke:#263238; stroke-miterlimit:10;"/><line x1="429.8516" y1="357.0731" x2="435.8667" y2="351.3241" style="fill:none; stroke:#263238; stroke-miterlimit:10; stroke-width:.5px;"/><line x1="423.6778" y1="328.7221" x2="427.6274" y2="322.2817" style="fill:none; stroke:#263238; stroke-miterlimit:10; stroke-width:2px;"/><path d="m426.4226,324.2159s-.6464-2.3439,1.1132-4.7378c1.0587-1.4405,7.3148-5.7775,8.4765-3.4969,1.2635,2.4803-4.6737,9.1282-9.5897,8.2347Z" style="fill:#92e3a9; stroke:#263238; stroke-miterlimit:10;"/><line x1="426.4226" y1="324.2159" x2="432.4377" y2="318.4668" style="fill:none; stroke:#263238; stroke-miterlimit:10; stroke-width:.5px;"/><line x1="422.171" y1="314.2826" x2="426.1205" y2="307.8422" style="fill:none; stroke:#263238; stroke-miterlimit:10; stroke-width:2px;"/><path d="m424.9157,309.7764s-.6465-2.3439,1.1131-4.7379c1.0586-1.4403,7.3148-5.7774,8.4765-3.4968,1.2637,2.4803-4.6737,9.1282-9.5896,8.2347Z" style="fill:#92e3a9; stroke:#263238; stroke-miterlimit:10;"/><line x1="424.9157" y1="309.7764" x2="430.9308" y2="304.0272" style="fill:none; stroke:#263238; stroke-miterlimit:10; stroke-width:.5px;"/><line x1="419.9618" y1="293.1141" x2="423.9114" y2="286.6737" style="fill:none; stroke:#263238; stroke-miterlimit:10; stroke-width:2px;"/><path d="m422.7065,288.6079s-.6464-2.3439,1.1132-4.7379c1.0586-1.4402,7.3147-5.7773,8.4765-3.4967,1.2635,2.4803-4.6737,9.1282-9.5897,8.2346Z" style="fill:#92e3a9; stroke:#263238; stroke-miterlimit:10;"/><line x1="422.7065" y1="288.6079" x2="428.7216" y2="282.8587" style="fill:none; stroke:#263238; stroke-miterlimit:10; stroke-width:.5px;"/><path d="m418.2725,279.5799s-.6464-2.3438,1.1131-4.7378c1.0587-1.4404,7.3148-5.7775,8.4765-3.4968,1.2636,2.4802-4.6737,9.1282-9.5896,8.2346Z" style="fill:#92e3a9; stroke:#263238; stroke-miterlimit:10;"/><line x1="418.2725" y1="279.5799" x2="424.2875" y2="273.8308" style="fill:none; stroke:#263238; stroke-miterlimit:10; stroke-width:.5px;"/><path d="m418.6211,279.8279s-2.3988.3971-4.5951-1.6039c-1.3214-1.2038-4.9784-7.8801-2.5886-8.7964,2.5992-.9965,8.5878,5.6053,7.1837,10.4003Z" style="fill:#92e3a9; stroke:#263238; stroke-miterlimit:10;"/><line x1="418.6211" y1="279.8279" x2="413.5343" y2="273.2431" style="fill:none; stroke:#263238; stroke-miterlimit:10; stroke-width:.5px;"/><line x1="448.5889" y1="295.3092" x2="437.1958" y2="405.1042" style="fill:none; stroke:#263238; stroke-miterlimit:10; stroke-width:2px;"/><line x1="439.7148" y1="384.1635" x2="435.7615" y2="377.7254" style="fill:none; stroke:#263238; stroke-miterlimit:10; stroke-width:2px;"/><path d="m436.9674,379.6589s.6451-2.3442-1.1158-4.7372c-1.0597-1.4398-7.3183-5.7731-8.4786-3.4919-1.2622,2.4811,4.6791,9.1255,9.5944,8.2291Z" style="fill:#92e3a9; stroke:#263238; stroke-miterlimit:10;"/><line x1="436.9674" y1="379.6589" x2="431.2876" y2="374.2099" style="fill:none; stroke:#263238; stroke-miterlimit:10; stroke-width:.5px;"/><line x1="442.8767" y1="353.6932" x2="438.9232" y2="347.2552" style="fill:none; stroke:#263238; stroke-miterlimit:10; stroke-width:2px;"/><path d="m440.1292,349.1886s.6451-2.3442-1.1159-4.7372c-1.0595-1.4397-7.3181-5.7731-8.4786-3.4919-1.2621,2.4812,4.6791,9.1256,9.5945,8.2291Z" style="fill:#92e3a9; stroke:#263238; stroke-miterlimit:10;"/><line x1="440.1292" y1="349.1886" x2="434.4493" y2="343.7396" style="fill:none; stroke:#263238; stroke-miterlimit:10; stroke-width:.5px;"/><line x1="441.5809" y1="366.1801" x2="437.6275" y2="359.742" style="fill:none; stroke:#263238; stroke-miterlimit:10; stroke-width:2px;"/><path d="m438.8335,361.6754s.645-2.3442-1.1159-4.7372c-1.0596-1.4396-7.3182-5.7731-8.4786-3.4918-1.2621,2.4812,4.6791,9.1255,9.5945,8.229Z" style="fill:#92e3a9; stroke:#263238; stroke-miterlimit:10;"/><line x1="438.8335" y1="361.6754" x2="433.1537" y2="356.2265" style="fill:none; stroke:#263238; stroke-miterlimit:10; stroke-width:.5px;"/><line x1="444.9813" y1="333.4092" x2="441.0281" y2="326.9712" style="fill:none; stroke:#263238; stroke-miterlimit:10; stroke-width:2px;"/><path d="m442.234,328.9046s.645-2.3441-1.1159-4.7372c-1.0595-1.4397-7.3182-5.773-8.4787-3.4919-1.262,2.4811,4.6791,9.1255,9.5946,8.2291Z" style="fill:#92e3a9; stroke:#263238; stroke-miterlimit:10;"/><line x1="442.234" y1="328.9046" x2="436.5541" y2="323.4556" style="fill:none; stroke:#263238; stroke-miterlimit:10; stroke-width:.5px;"/><line x1="447.0953" y1="313.0368" x2="443.1421" y2="306.5986" style="fill:none; stroke:#263238; stroke-miterlimit:10; stroke-width:2px;"/><path d="m444.348,308.5321s.6449-2.3443-1.116-4.7371c-1.0595-1.4398-7.3181-5.7733-8.4786-3.492-1.2621,2.4812,4.6791,9.1256,9.5946,8.2291Z" style="fill:#92e3a9; stroke:#263238; stroke-miterlimit:10;"/><line x1="444.348" y1="308.5321" x2="438.6681" y2="303.0831" style="fill:none; stroke:#263238; stroke-miterlimit:10; stroke-width:.5px;"/><line x1="440.3815" y1="376.7543" x2="445.5726" y2="371.265" style="fill:none; stroke:#263238; stroke-miterlimit:10; stroke-width:2px;"/><path d="m443.9955,372.9099s-.1501-2.4268,2.0648-4.4073c1.3325-1.1915,8.3474-4.1475,9.0147-1.6766.7258,2.6874-6.453,7.9704-11.0795,6.0839Z" style="fill:#92e3a9; stroke:#263238; stroke-miterlimit:10;"/><line x1="443.9955" y1="372.9099" x2="451.0652" y2="368.5223" style="fill:none; stroke:#263238; stroke-miterlimit:10; stroke-width:.5px;"/><line x1="443.7913" y1="343.895" x2="448.9822" y2="338.4057" style="fill:none; stroke:#263238; stroke-miterlimit:10; stroke-width:2px;"/><path d="m447.405,340.0504s-.1501-2.4267,2.0648-4.4071c1.3326-1.1916,8.3476-4.1475,9.0148-1.6766.726,2.6873-6.453,7.9704-11.0796,6.0837Z" style="fill:#92e3a9; stroke:#263238; stroke-miterlimit:10;"/><line x1="447.405" y1="340.0504" x2="454.475" y2="335.6629" style="fill:none; stroke:#263238; stroke-miterlimit:10; stroke-width:.5px;"/><line x1="445.2897" y1="329.4546" x2="450.4806" y2="323.9655" style="fill:none; stroke:#263238; stroke-miterlimit:10; stroke-width:2px;"/><path d="m448.9034,325.6101s-.1498-2.4268,2.0649-4.4071c1.3325-1.1915,8.3475-4.1476,9.0149-1.6767.7257,2.6874-6.4532,7.9704-11.0798,6.0838Z" style="fill:#92e3a9; stroke:#263238; stroke-miterlimit:10;"/><line x1="448.9034" y1="325.6101" x2="455.9734" y2="321.2226" style="fill:none; stroke:#263238; stroke-miterlimit:10; stroke-width:.5px;"/><line x1="447.4863" y1="308.2849" x2="452.6773" y2="302.7956" style="fill:none; stroke:#263238; stroke-miterlimit:10; stroke-width:2px;"/><path d="m451.1002,304.4404s-.1501-2.4267,2.0647-4.4072c1.3327-1.1915,8.3477-4.1475,9.0149-1.6767.7258,2.6875-6.4531,7.9705-11.0796,6.0839Z" style="fill:#92e3a9; stroke:#263238; stroke-miterlimit:10;"/><line x1="451.1002" y1="304.4404" x2="458.17" y2="300.0528" style="fill:none; stroke:#263238; stroke-miterlimit:10; stroke-width:.5px;"/><path d="m448.62,294.6928s-.15-2.4268,2.0648-4.4073c1.3324-1.1913,8.3475-4.1474,9.0149-1.6765.7257,2.6874-6.4531,7.9704-11.0797,6.0838Z" style="fill:#92e3a9; stroke:#263238; stroke-miterlimit:10;"/><line x1="448.62" y1="294.6928" x2="455.6899" y2="290.3053" style="fill:none; stroke:#263238; stroke-miterlimit:10; stroke-width:.5px;"/><path d="m448.91,295.0073s-2.4291-.1053-4.1662-2.5156c-1.0452-1.4502-3.2492-8.7365-.722-9.141,2.7486-.4399,7.2496,7.2533,4.8882,11.6566Z" style="fill:#92e3a9; stroke:#263238; stroke-miterlimit:10;"/><line x1="448.91" y1="295.0073" x2="445.2881" y2="287.5162" style="fill:none; stroke:#263238; stroke-miterlimit:10; stroke-width:.5px;"/><line x1="435.533" y1="250.6004" x2="435.533" y2="389.4432" style="fill:none; stroke:#263238; stroke-miterlimit:10; stroke-width:2px;"/><line x1="435.6434" y1="368.5669" x2="431.0467" y2="362.5714" style="fill:none; stroke:#263238; stroke-miterlimit:10; stroke-width:2px;"/><path d="m432.4458,364.37s.3996-2.3983-1.5989-4.5967c-1.2025-1.3226-7.875-4.987-8.7937-2.5981-.9993,2.5981,5.5959,8.5938,10.3926,7.1948Z" style="fill:#92e3a9; stroke:#263238; stroke-miterlimit:10;"/><line x1="432.4458" y1="364.37" x2="426.2339" y2="359.5364" style="fill:none; stroke:#263238; stroke-miterlimit:10; stroke-width:.5px;"/><line x1="435.6434" y1="342.4748" x2="431.0467" y2="336.4791" style="fill:none; stroke:#263238; stroke-miterlimit:10; stroke-width:2px;"/><path d="m432.4458,338.2778s.3996-2.3983-1.5989-4.5967c-1.2025-1.3226-7.875-4.9869-8.7937-2.5982-.9993,2.5982,5.5959,8.5939,10.3926,7.1949Z" style="fill:#92e3a9; stroke:#263238; stroke-miterlimit:10;"/><line x1="432.4458" y1="338.2778" x2="426.2339" y2="333.4441" style="fill:none; stroke:#263238; stroke-miterlimit:10; stroke-width:.5px;"/><line x1="435.6434" y1="311.841" x2="431.0467" y2="305.8453" style="fill:none; stroke:#263238; stroke-miterlimit:10; stroke-width:2px;"/><path d="m432.4458,307.644s.3996-2.3984-1.5989-4.5968c-1.2025-1.3226-7.875-4.9869-8.7937-2.5981-.9993,2.5981,5.5959,8.5939,10.3926,7.1949Z" style="fill:#92e3a9; stroke:#263238; stroke-miterlimit:10;"/><line x1="432.4458" y1="307.644" x2="426.2339" y2="302.8104" style="fill:none; stroke:#263238; stroke-miterlimit:10; stroke-width:.5px;"/><line x1="435.6434" y1="291.4481" x2="431.0467" y2="285.4525" style="fill:none; stroke:#263238; stroke-miterlimit:10; stroke-width:2px;"/><path d="m432.4458,287.2511s.3996-2.3983-1.5989-4.5967c-1.2025-1.3227-7.875-4.987-8.7937-2.5982-.9993,2.5982,5.5959,8.5939,10.3926,7.1949Z" style="fill:#92e3a9; stroke:#263238; stroke-miterlimit:10;"/><line x1="432.4458" y1="287.2511" x2="426.2339" y2="282.4175" style="fill:none; stroke:#263238; stroke-miterlimit:10; stroke-width:.5px;"/><line x1="435.6434" y1="270.9662" x2="431.0467" y2="264.9705" style="fill:none; stroke:#263238; stroke-miterlimit:10; stroke-width:2px;"/><path d="m432.4458,266.7691s.3996-2.3982-1.5989-4.5967c-1.2025-1.3226-7.875-4.9869-8.7937-2.5982-.9993,2.5982,5.5959,8.594,10.3926,7.1949Z" style="fill:#92e3a9; stroke:#263238; stroke-miterlimit:10;"/><line x1="432.4458" y1="266.7691" x2="426.2339" y2="261.9356" style="fill:none; stroke:#263238; stroke-miterlimit:10; stroke-width:.5px;"/><line x1="435.542" y1="376.5346" x2="440.1387" y2="370.5389" style="fill:none; stroke:#263238; stroke-miterlimit:10; stroke-width:2px;"/><path d="m438.7396,372.3377s-.3995-2.3984,1.599-4.5968c1.2024-1.3228,7.8748-4.9869,8.7935-2.5981.9993,2.5981-5.5959,8.5938-10.3925,7.1949Z" style="fill:#92e3a9; stroke:#263238; stroke-miterlimit:10;"/><line x1="438.7396" y1="372.3377" x2="445.319" y2="367.2439" style="fill:none; stroke:#263238; stroke-miterlimit:10; stroke-width:.5px;"/><line x1="435.542" y1="335.0364" x2="440.1387" y2="329.0407" style="fill:none; stroke:#263238; stroke-miterlimit:10; stroke-width:2px;"/><path d="m438.7396,330.8394s-.3995-2.3983,1.599-4.5967c1.2024-1.3226,7.8748-4.9869,8.7935-2.5981.9993,2.5981-5.5959,8.5938-10.3925,7.1948Z" style="fill:#92e3a9; stroke:#263238; stroke-miterlimit:10;"/><line x1="438.7396" y1="330.8394" x2="445.319" y2="325.7457" style="fill:none; stroke:#263238; stroke-miterlimit:10; stroke-width:.5px;"/><line x1="435.542" y1="314.5545" x2="440.1387" y2="308.5588" style="fill:none; stroke:#263238; stroke-miterlimit:10; stroke-width:2px;"/><path d="m438.7396,310.3575s-.3995-2.3984,1.599-4.5967c1.2024-1.3226,7.8748-4.987,8.7935-2.5982.9993,2.5982-5.5959,8.5939-10.3925,7.1949Z" style="fill:#92e3a9; stroke:#263238; stroke-miterlimit:10;"/><line x1="438.7396" y1="310.3575" x2="445.319" y2="305.2638" style="fill:none; stroke:#263238; stroke-miterlimit:10; stroke-width:.5px;"/><line x1="435.542" y1="287.4827" x2="440.1387" y2="281.487" style="fill:none; stroke:#263238; stroke-miterlimit:10; stroke-width:2px;"/><path d="m438.7396,283.2857s-.3995-2.3983,1.599-4.5966c1.2024-1.3228,7.8748-4.987,8.7935-2.5983.9993,2.5983-5.5959,8.5939-10.3925,7.1949Z" style="fill:#92e3a9; stroke:#263238; stroke-miterlimit:10;"/><line x1="438.7396" y1="283.2857" x2="445.319" y2="278.1919" style="fill:none; stroke:#263238; stroke-miterlimit:10; stroke-width:.5px;"/><line x1="435.542" y1="266.1994" x2="440.1387" y2="260.2036" style="fill:none; stroke:#263238; stroke-miterlimit:10; stroke-width:2px;"/><path d="m438.7396,262.0023s-.3995-2.3982,1.599-4.5966c1.2024-1.3228,7.8748-4.9871,8.7935-2.5982.9993,2.5982-5.5959,8.5938-10.3925,7.1948Z" style="fill:#92e3a9; stroke:#263238; stroke-miterlimit:10;"/><line x1="438.7396" y1="262.0023" x2="445.319" y2="256.9086" style="fill:none; stroke:#263238; stroke-miterlimit:10; stroke-width:.5px;"/><path d="m435.2667,252.5627s-.3997-2.3982,1.5989-4.5967c1.2023-1.3225,7.8748-4.9868,8.7936-2.598.9992,2.598-5.5959,8.5939-10.3925,7.1947Z" style="fill:#92e3a9; stroke:#263238; stroke-miterlimit:10;"/><line x1="435.2667" y1="252.5627" x2="441.846" y2="247.4691" style="fill:none; stroke:#263238; stroke-miterlimit:10; stroke-width:.5px;"/><path d="m435.5877,252.8457s-2.4271.146-4.4038-2.0721c-1.1893-1.3345-4.1337-8.3545-1.6615-9.0176,2.6885-.7215,7.9595,6.4663,6.0653,11.0897Z" style="fill:#92e3a9; stroke:#263238; stroke-miterlimit:10;"/><line x1="435.5877" y1="252.8457" x2="431.2119" y2="245.7684" style="fill:none; stroke:#263238; stroke-miterlimit:10; stroke-width:.5px;"/><polygon points="441.2449 425.4533 426.5408 425.4533 424.7028 388.3179 443.0829 388.3179 441.2449 425.4533" style="fill:#263238; stroke:#263238; stroke-miterlimit:10;"/></g><g id="j"><line x1="406.223" y1="425.4533" x2="462.7229" y2="425.4533" style="fill:none; stroke:#263238; stroke-miterlimit:10;"/><line x1="14.723" y1="425.4533" x2="401.223" y2="425.4533" style="fill:none; stroke:#263238; stroke-miterlimit:10;"/></g></svg>