<svg width="1448" height="1686" viewBox="0 0 1448 1686" fill="none" xmlns="http://www.w3.org/2000/svg">
<rect width="1440" height="1024" transform="translate(0 6)" fill="white"/>
<g filter="url(#filter0_d_102_2444)">
<rect width="1204" height="104" transform="translate(236 6)" fill="#2E2E2E"/>
<g filter="url(#filter1_d_102_2444)">
<rect x="1335" y="34" width="49" height="49" rx="24.5" fill="#E8E8E8"/>
</g>
<g filter="url(#filter2_d_102_2444)">
<rect x="1283" y="40" width="36" height="36" rx="18" fill="white" shape-rendering="crispEdges"/>
<circle cx="1313" cy="44" r="4" fill="#808080"/>
<path d="M1295.45 54.9694C1295.76 52.1403 1298.15 50 1301 50V50C1303.85 50 1306.24 52.1403 1306.55 54.9694L1306.8 57.2356C1306.81 57.2645 1306.81 57.279 1306.81 57.2933C1306.94 58.4169 1307.31 59.5005 1307.88 60.4725C1307.89 60.4849 1307.9 60.4973 1307.91 60.5222L1308.49 61.4856C1309.02 62.3599 1309.28 62.797 1309.22 63.1559C1309.18 63.3946 1309.06 63.6117 1308.88 63.7668C1308.6 64 1308.09 64 1307.07 64H1294.93C1293.91 64 1293.4 64 1293.12 63.7668C1292.94 63.6117 1292.82 63.3946 1292.78 63.1559C1292.72 62.797 1292.98 62.3599 1293.51 61.4856L1294.09 60.5222C1294.1 60.4973 1294.11 60.4849 1294.12 60.4725C1294.69 59.5005 1295.06 58.4169 1295.19 57.2933C1295.19 57.279 1295.19 57.2645 1295.2 57.2356L1295.45 54.9694Z" stroke="#262626"/>
<path d="M1298.1 64.4059C1298.27 65.1501 1298.65 65.8077 1299.17 66.2767C1299.7 66.7458 1300.34 67 1301 67C1301.66 67 1302.3 66.7458 1302.83 66.2767C1303.35 65.8077 1303.73 65.1501 1303.9 64.4059" stroke="#262626" stroke-linecap="round"/>
</g>
<g filter="url(#filter3_d_102_2444)">
<rect x="1231" y="40" width="36" height="36" rx="18" fill="white"/>
<circle cx="1248" cy="57" r="6" stroke="#262626"/>
<path d="M1248 54C1247.61 54 1247.22 54.0776 1246.85 54.2284C1246.49 54.3791 1246.16 54.6001 1245.88 54.8787C1245.6 55.1573 1245.38 55.488 1245.23 55.852C1245.08 56.2159 1245 56.606 1245 57" stroke="#262626" stroke-linecap="round"/>
<path d="M1257 66L1254 63" stroke="#262626" stroke-linecap="round"/>
</g>
<g filter="url(#filter4_d_102_2444)">
<rect x="276" y="40" width="157" height="36" rx="18" fill="white"/>
<path d="M411 55L405 61L399 55" stroke="#262626" stroke-width="2" stroke-linecap="round" stroke-linejoin="round"/>
<rect x="292" y="54" width="100" height="7" rx="3.5" fill="black"/>
</g>
<path d="M1410 56L1404 62L1398 56" stroke="white" stroke-width="2" stroke-linecap="round" stroke-linejoin="round"/>
</g>
<g clip-path="url(#clip0_102_2444)">
<mask id="path-14-inside-1_102_2444" fill="white">
<path d="M0 6H236V1030H0V6Z"/>
</mask>
<path d="M0 6H236V1030H0V6Z" fill="#2E2E2E"/>
<rect x="16" y="198" width="16" height="16" fill="#C4C4C4"/>
<rect x="48" y="202" width="91" height="9" rx="4.5" fill="white"/>
<rect x="16" y="238" width="16" height="16" fill="#C4C4C4"/>
<rect x="48" y="242" width="75" height="9" rx="4.5" fill="white"/>
<rect x="16" y="278" width="16" height="16" fill="#C4C4C4"/>
<rect x="48" y="282" width="100" height="9" rx="4.5" fill="white"/>
<rect x="16" y="318" width="16" height="16" fill="#C4C4C4"/>
<rect x="48" y="322" width="63" height="9" rx="4.5" fill="white"/>
<rect x="16" y="361" width="16" height="16" fill="#C4C4C4"/>
<rect x="48" y="365" width="67" height="9" rx="4.5" fill="white"/>
<rect x="13" y="25" width="209" height="107" fill="#D9D9D9"/>
</g>
<path d="M235 6V1030H237V6H235Z" fill="white" mask="url(#path-14-inside-1_102_2444)"/>
<rect width="1204" height="1576" transform="translate(236 110)" fill="white"/>
<g clip-path="url(#clip1_102_2444)">
<rect x="276" y="149" width="1124" height="505" rx="15" fill="white"/>
<rect x="1400" y="149" width="505" height="1124" transform="rotate(90 1400 149)" fill="#E8E8E8"/>
<g filter="url(#filter5_d_102_2444)">
<rect x="292" y="165" width="360" height="40" rx="20" fill="white"/>
<circle cx="313" cy="184" r="6" stroke="#262626"/>
<path d="M313 181C312.606 181 312.216 181.078 311.852 181.228C311.488 181.379 311.157 181.6 310.879 181.879C310.6 182.157 310.379 182.488 310.228 182.852C310.078 183.216 310 183.606 310 184" stroke="#262626" stroke-linecap="round"/>
<path d="M322 193L319 190" stroke="#262626" stroke-linecap="round"/>
<rect x="330" y="181" width="49" height="8" rx="4" fill="#8C8C8C"/>
</g>
<g filter="url(#filter6_d_102_2444)">
<rect x="1340" y="518" width="44" height="120" rx="5" fill="white"/>
</g>
<g filter="url(#filter7_d_102_2444)">
<rect x="1284" y="165" width="100" height="42" rx="5" fill="#F2F2F2"/>
<rect x="1289" y="176" width="20" height="20" fill="#AEAEAE"/>
<rect x="1324" y="182" width="52" height="9" rx="4.5" fill="#262626"/>
</g>
<rect x="675.5" y="237.5" width="325" height="328" fill="#878787" fill-opacity="0.5" stroke="black" stroke-width="3" stroke-linecap="round" stroke-linejoin="round" stroke-dasharray="16 16"/>
</g>
<g filter="url(#filter8_d_102_2444)">
<rect x="975" y="725" width="181" height="38" rx="19" fill="#262626" shape-rendering="crispEdges"/>
<rect x="989" y="740" width="153.6" height="9" rx="4.5" fill="white"/>
</g>
<g filter="url(#filter9_d_102_2444)">
<rect x="1187" y="725" width="213" height="38" rx="19" fill="#262626" shape-rendering="crispEdges"/>
<rect x="1207.6" y="740.652" width="172.4" height="7.69643" rx="3.84821" fill="white"/>
</g>
<g filter="url(#filter10_d_102_2444)">
<rect x="1250" y="1614" width="164" height="46" rx="23" fill="white" shape-rendering="crispEdges"/>
<rect x="1250.5" y="1614.5" width="163" height="45" rx="22.5" stroke="#262626" shape-rendering="crispEdges"/>
<rect x="1304" y="1633" width="94" height="9" rx="4.5" fill="#262626"/>
<rect x="1267" y="1626" width="23" height="23" fill="#D9D9D9"/>
</g>
<g filter="url(#filter11_d_102_2444)">
<rect x="1074" y="1614" width="160" height="46" rx="23" fill="#262626" shape-rendering="crispEdges"/>
<rect x="1090" y="1633" width="128" height="9" rx="4.5" fill="white"/>
</g>
<g filter="url(#filter12_d_102_2444)">
<rect x="330" y="1015" width="1084" height="193" rx="15" fill="white" shape-rendering="crispEdges"/>
<rect x="330.1" y="1015.1" width="1083.8" height="192.8" rx="14.9" stroke="#2B2B2B" stroke-width="0.2" shape-rendering="crispEdges"/>
<rect x="346" y="1037" width="270" height="9" rx="4.5" fill="#2E2E2E"/>
<rect x="379" y="1070" width="821" height="9" rx="4.5" fill="black"/>
<rect x="379" y="1090" width="398" height="9" rx="4.5" fill="black"/>
<rect x="379" y="1110" width="796" height="9" rx="4.5" fill="black"/>
<rect x="379" y="1130" width="356" height="9" rx="4.5" fill="black"/>
<rect x="379" y="1150" width="315" height="9" rx="4.5" fill="black"/>
<g filter="url(#filter13_d_102_2444)">
<rect x="1216" y="1120" width="182" height="40" rx="8" fill="#7D7D7D" shape-rendering="crispEdges"/>
<rect x="1221" y="1136" width="172.8" height="9" rx="4.5" fill="black"/>
</g>
<path d="M880 1196L872 1188L864 1196" stroke="#262626" stroke-width="3" stroke-linecap="round" stroke-linejoin="round"/>
</g>
<g filter="url(#filter14_d_102_2444)">
<rect x="330" y="1240" width="1084" height="209" rx="15" fill="white" shape-rendering="crispEdges"/>
<rect x="330.1" y="1240.1" width="1083.8" height="208.8" rx="14.9" stroke="#2B2B2B" stroke-width="0.2" shape-rendering="crispEdges"/>
<rect x="346" y="1262" width="311" height="9" rx="4.5" fill="#2E2E2E"/>
<rect x="379" y="1295" width="792" height="9" rx="4.5" fill="black"/>
<rect x="379" y="1315" width="702" height="9" rx="4.5" fill="black"/>
<rect x="379" y="1335" width="213" height="9" rx="4.5" fill="black"/>
<rect x="379" y="1355" width="648" height="9" rx="4.5" fill="black"/>
<rect x="379" y="1375" width="592" height="9" rx="4.5" fill="black"/>
<rect x="379" y="1395" width="642" height="9" rx="4.5" fill="black"/>
<g filter="url(#filter15_d_102_2444)">
<rect x="1216" y="1369" width="182" height="40" rx="8" fill="#9C9C9C" shape-rendering="crispEdges"/>
<rect x="1221" y="1385" width="172.8" height="9" rx="4.5" fill="black"/>
</g>
<path d="M880 1437L872 1429L864 1437" stroke="#262626" stroke-width="3" stroke-linecap="round" stroke-linejoin="round"/>
</g>
<g filter="url(#filter16_d_102_2444)">
<rect x="330" y="1481" width="1084" height="80" rx="15" fill="white" shape-rendering="crispEdges"/>
<rect x="330.1" y="1481.1" width="1083.8" height="79.8" rx="14.9" stroke="#2B2B2B" stroke-width="0.2" shape-rendering="crispEdges"/>
<rect x="346" y="1515" width="415" height="9" rx="4.5" fill="#2E2E2E"/>
<path d="M880 1541L872 1549L864 1541" stroke="#262626" stroke-width="3" stroke-linecap="round" stroke-linejoin="round"/>
<g filter="url(#filter17_d_102_2444)">
<rect x="1216" y="1501" width="181" height="40" rx="8" fill="#BDBDBD" shape-rendering="crispEdges"/>
<rect x="1220" y="1517" width="172.8" height="9" rx="4.5" fill="black"/>
</g>
</g>
<rect x="292" y="849" width="172.8" height="9" rx="4.5" fill="#262626"/>
<rect x="292" y="889" width="245" height="9" rx="4.5" fill="#757575"/>
<rect x="292" y="929" width="625" height="9" rx="4.5" fill="#757575"/>
<rect x="292" y="969" width="254" height="9" rx="4.5" fill="#2E2E2E"/>
<rect x="314" y="745" width="492" height="9" rx="4.5" fill="#757575"/>
<rect x="314" y="704" width="211.2" height="9" rx="4.5" fill="black"/>
<rect x="278" y="692" width="30" height="30" fill="#D9D9D9"/>
<rect x="1354" y="530" width="16" height="16" fill="#C4C4C4"/>
<rect x="1354" y="570" width="16" height="16" fill="#C4C4C4"/>
<rect x="1354" y="610" width="16" height="16" fill="#C4C4C4"/>
<rect x="14" y="913" width="16" height="16" fill="#C4C4C4"/>
<rect x="46" y="917" width="67" height="9" rx="4.5" fill="white"/>
<rect x="14" y="953" width="16" height="16" fill="#C4C4C4"/>
<rect x="46" y="957" width="67" height="9" rx="4.5" fill="white"/>
<rect x="14" y="993" width="16" height="16" fill="#C4C4C4"/>
<rect x="46" y="997" width="67" height="9" rx="4.5" fill="white"/>
<defs>
<filter id="filter0_d_102_2444" x="228" y="0" width="1220" height="120" filterUnits="userSpaceOnUse" color-interpolation-filters="sRGB">
<feFlood flood-opacity="0" result="BackgroundImageFix"/>
<feColorMatrix in="SourceAlpha" type="matrix" values="0 0 0 0 0 0 0 0 0 0 0 0 0 0 0 0 0 0 127 0" result="hardAlpha"/>
<feOffset dy="2"/>
<feGaussianBlur stdDeviation="4"/>
<feComposite in2="hardAlpha" operator="out"/>
<feColorMatrix type="matrix" values="0 0 0 0 1 0 0 0 0 1 0 0 0 0 1 0 0 0 0.25 0"/>
<feBlend mode="normal" in2="BackgroundImageFix" result="effect1_dropShadow_102_2444"/>
<feBlend mode="normal" in="SourceGraphic" in2="effect1_dropShadow_102_2444" result="shape"/>
</filter>
<filter id="filter1_d_102_2444" x="1329" y="28" width="65" height="65" filterUnits="userSpaceOnUse" color-interpolation-filters="sRGB">
<feFlood flood-opacity="0" result="BackgroundImageFix"/>
<feColorMatrix in="SourceAlpha" type="matrix" values="0 0 0 0 0 0 0 0 0 0 0 0 0 0 0 0 0 0 127 0" result="hardAlpha"/>
<feOffset dx="2" dy="2"/>
<feGaussianBlur stdDeviation="4"/>
<feComposite in2="hardAlpha" operator="out"/>
<feColorMatrix type="matrix" values="0 0 0 0 1 0 0 0 0 1 0 0 0 0 1 0 0 0 0.1 0"/>
<feBlend mode="normal" in2="BackgroundImageFix" result="effect1_dropShadow_102_2444"/>
<feBlend mode="normal" in="SourceGraphic" in2="effect1_dropShadow_102_2444" result="shape"/>
</filter>
<filter id="filter2_d_102_2444" x="1277" y="34" width="52" height="52" filterUnits="userSpaceOnUse" color-interpolation-filters="sRGB">
<feFlood flood-opacity="0" result="BackgroundImageFix"/>
<feColorMatrix in="SourceAlpha" type="matrix" values="0 0 0 0 0 0 0 0 0 0 0 0 0 0 0 0 0 0 127 0" result="hardAlpha"/>
<feOffset dx="2" dy="2"/>
<feGaussianBlur stdDeviation="4"/>
<feComposite in2="hardAlpha" operator="out"/>
<feColorMatrix type="matrix" values="0 0 0 0 1 0 0 0 0 1 0 0 0 0 1 0 0 0 0.1 0"/>
<feBlend mode="normal" in2="BackgroundImageFix" result="effect1_dropShadow_102_2444"/>
<feBlend mode="normal" in="SourceGraphic" in2="effect1_dropShadow_102_2444" result="shape"/>
</filter>
<filter id="filter3_d_102_2444" x="1225" y="34" width="52" height="52" filterUnits="userSpaceOnUse" color-interpolation-filters="sRGB">
<feFlood flood-opacity="0" result="BackgroundImageFix"/>
<feColorMatrix in="SourceAlpha" type="matrix" values="0 0 0 0 0 0 0 0 0 0 0 0 0 0 0 0 0 0 127 0" result="hardAlpha"/>
<feOffset dx="2" dy="2"/>
<feGaussianBlur stdDeviation="4"/>
<feComposite in2="hardAlpha" operator="out"/>
<feColorMatrix type="matrix" values="0 0 0 0 1 0 0 0 0 1 0 0 0 0 1 0 0 0 0.1 0"/>
<feBlend mode="normal" in2="BackgroundImageFix" result="effect1_dropShadow_102_2444"/>
<feBlend mode="normal" in="SourceGraphic" in2="effect1_dropShadow_102_2444" result="shape"/>
</filter>
<filter id="filter4_d_102_2444" x="270" y="34" width="173" height="52" filterUnits="userSpaceOnUse" color-interpolation-filters="sRGB">
<feFlood flood-opacity="0" result="BackgroundImageFix"/>
<feColorMatrix in="SourceAlpha" type="matrix" values="0 0 0 0 0 0 0 0 0 0 0 0 0 0 0 0 0 0 127 0" result="hardAlpha"/>
<feOffset dx="2" dy="2"/>
<feGaussianBlur stdDeviation="4"/>
<feComposite in2="hardAlpha" operator="out"/>
<feColorMatrix type="matrix" values="0 0 0 0 1 0 0 0 0 1 0 0 0 0 1 0 0 0 0.1 0"/>
<feBlend mode="normal" in2="BackgroundImageFix" result="effect1_dropShadow_102_2444"/>
<feBlend mode="normal" in="SourceGraphic" in2="effect1_dropShadow_102_2444" result="shape"/>
</filter>
<filter id="filter5_d_102_2444" x="286" y="159" width="376" height="56" filterUnits="userSpaceOnUse" color-interpolation-filters="sRGB">
<feFlood flood-opacity="0" result="BackgroundImageFix"/>
<feColorMatrix in="SourceAlpha" type="matrix" values="0 0 0 0 0 0 0 0 0 0 0 0 0 0 0 0 0 0 127 0" result="hardAlpha"/>
<feOffset dx="2" dy="2"/>
<feGaussianBlur stdDeviation="4"/>
<feComposite in2="hardAlpha" operator="out"/>
<feColorMatrix type="matrix" values="0 0 0 0 0 0 0 0 0 0 0 0 0 0 0 0 0 0 0.25 0"/>
<feBlend mode="normal" in2="BackgroundImageFix" result="effect1_dropShadow_102_2444"/>
<feBlend mode="normal" in="SourceGraphic" in2="effect1_dropShadow_102_2444" result="shape"/>
</filter>
<filter id="filter6_d_102_2444" x="1334" y="512" width="60" height="136" filterUnits="userSpaceOnUse" color-interpolation-filters="sRGB">
<feFlood flood-opacity="0" result="BackgroundImageFix"/>
<feColorMatrix in="SourceAlpha" type="matrix" values="0 0 0 0 0 0 0 0 0 0 0 0 0 0 0 0 0 0 127 0" result="hardAlpha"/>
<feOffset dx="2" dy="2"/>
<feGaussianBlur stdDeviation="4"/>
<feComposite in2="hardAlpha" operator="out"/>
<feColorMatrix type="matrix" values="0 0 0 0 0 0 0 0 0 0 0 0 0 0 0 0 0 0 0.25 0"/>
<feBlend mode="normal" in2="BackgroundImageFix" result="effect1_dropShadow_102_2444"/>
<feBlend mode="normal" in="SourceGraphic" in2="effect1_dropShadow_102_2444" result="shape"/>
</filter>
<filter id="filter7_d_102_2444" x="1278" y="159" width="116" height="58" filterUnits="userSpaceOnUse" color-interpolation-filters="sRGB">
<feFlood flood-opacity="0" result="BackgroundImageFix"/>
<feColorMatrix in="SourceAlpha" type="matrix" values="0 0 0 0 0 0 0 0 0 0 0 0 0 0 0 0 0 0 127 0" result="hardAlpha"/>
<feOffset dx="2" dy="2"/>
<feGaussianBlur stdDeviation="4"/>
<feComposite in2="hardAlpha" operator="out"/>
<feColorMatrix type="matrix" values="0 0 0 0 0 0 0 0 0 0 0 0 0 0 0 0 0 0 0.25 0"/>
<feBlend mode="normal" in2="BackgroundImageFix" result="effect1_dropShadow_102_2444"/>
<feBlend mode="normal" in="SourceGraphic" in2="effect1_dropShadow_102_2444" result="shape"/>
</filter>
<filter id="filter8_d_102_2444" x="971" y="721" width="197" height="54" filterUnits="userSpaceOnUse" color-interpolation-filters="sRGB">
<feFlood flood-opacity="0" result="BackgroundImageFix"/>
<feColorMatrix in="SourceAlpha" type="matrix" values="0 0 0 0 0 0 0 0 0 0 0 0 0 0 0 0 0 0 127 0" result="hardAlpha"/>
<feOffset dx="4" dy="4"/>
<feGaussianBlur stdDeviation="4"/>
<feComposite in2="hardAlpha" operator="out"/>
<feColorMatrix type="matrix" values="0 0 0 0 0 0 0 0 0 0 0 0 0 0 0 0 0 0 0.25 0"/>
<feBlend mode="normal" in2="BackgroundImageFix" result="effect1_dropShadow_102_2444"/>
<feBlend mode="normal" in="SourceGraphic" in2="effect1_dropShadow_102_2444" result="shape"/>
</filter>
<filter id="filter9_d_102_2444" x="1183" y="721" width="229" height="54" filterUnits="userSpaceOnUse" color-interpolation-filters="sRGB">
<feFlood flood-opacity="0" result="BackgroundImageFix"/>
<feColorMatrix in="SourceAlpha" type="matrix" values="0 0 0 0 0 0 0 0 0 0 0 0 0 0 0 0 0 0 127 0" result="hardAlpha"/>
<feOffset dx="4" dy="4"/>
<feGaussianBlur stdDeviation="4"/>
<feComposite in2="hardAlpha" operator="out"/>
<feColorMatrix type="matrix" values="0 0 0 0 0 0 0 0 0 0 0 0 0 0 0 0 0 0 0.25 0"/>
<feBlend mode="normal" in2="BackgroundImageFix" result="effect1_dropShadow_102_2444"/>
<feBlend mode="normal" in="SourceGraphic" in2="effect1_dropShadow_102_2444" result="shape"/>
</filter>
<filter id="filter10_d_102_2444" x="1246" y="1610" width="180" height="62" filterUnits="userSpaceOnUse" color-interpolation-filters="sRGB">
<feFlood flood-opacity="0" result="BackgroundImageFix"/>
<feColorMatrix in="SourceAlpha" type="matrix" values="0 0 0 0 0 0 0 0 0 0 0 0 0 0 0 0 0 0 127 0" result="hardAlpha"/>
<feOffset dx="4" dy="4"/>
<feGaussianBlur stdDeviation="4"/>
<feComposite in2="hardAlpha" operator="out"/>
<feColorMatrix type="matrix" values="0 0 0 0 0 0 0 0 0 0 0 0 0 0 0 0 0 0 0.25 0"/>
<feBlend mode="normal" in2="BackgroundImageFix" result="effect1_dropShadow_102_2444"/>
<feBlend mode="normal" in="SourceGraphic" in2="effect1_dropShadow_102_2444" result="shape"/>
</filter>
<filter id="filter11_d_102_2444" x="1070" y="1610" width="176" height="62" filterUnits="userSpaceOnUse" color-interpolation-filters="sRGB">
<feFlood flood-opacity="0" result="BackgroundImageFix"/>
<feColorMatrix in="SourceAlpha" type="matrix" values="0 0 0 0 0 0 0 0 0 0 0 0 0 0 0 0 0 0 127 0" result="hardAlpha"/>
<feOffset dx="4" dy="4"/>
<feGaussianBlur stdDeviation="4"/>
<feComposite in2="hardAlpha" operator="out"/>
<feColorMatrix type="matrix" values="0 0 0 0 0 0 0 0 0 0 0 0 0 0 0 0 0 0 0.25 0"/>
<feBlend mode="normal" in2="BackgroundImageFix" result="effect1_dropShadow_102_2444"/>
<feBlend mode="normal" in="SourceGraphic" in2="effect1_dropShadow_102_2444" result="shape"/>
</filter>
<filter id="filter12_d_102_2444" x="318" y="1003" width="1116" height="225" filterUnits="userSpaceOnUse" color-interpolation-filters="sRGB">
<feFlood flood-opacity="0" result="BackgroundImageFix"/>
<feColorMatrix in="SourceAlpha" type="matrix" values="0 0 0 0 0 0 0 0 0 0 0 0 0 0 0 0 0 0 127 0" result="hardAlpha"/>
<feOffset dx="4" dy="4"/>
<feGaussianBlur stdDeviation="8"/>
<feComposite in2="hardAlpha" operator="out"/>
<feColorMatrix type="matrix" values="0 0 0 0 0 0 0 0 0 0 0 0 0 0 0 0 0 0 0.25 0"/>
<feBlend mode="normal" in2="BackgroundImageFix" result="effect1_dropShadow_102_2444"/>
<feBlend mode="normal" in="SourceGraphic" in2="effect1_dropShadow_102_2444" result="shape"/>
</filter>
<filter id="filter13_d_102_2444" x="1210" y="1114" width="198" height="56" filterUnits="userSpaceOnUse" color-interpolation-filters="sRGB">
<feFlood flood-opacity="0" result="BackgroundImageFix"/>
<feColorMatrix in="SourceAlpha" type="matrix" values="0 0 0 0 0 0 0 0 0 0 0 0 0 0 0 0 0 0 127 0" result="hardAlpha"/>
<feOffset dx="2" dy="2"/>
<feGaussianBlur stdDeviation="4"/>
<feComposite in2="hardAlpha" operator="out"/>
<feColorMatrix type="matrix" values="0 0 0 0 0 0 0 0 0 0 0 0 0 0 0 0 0 0 0.25 0"/>
<feBlend mode="normal" in2="BackgroundImageFix" result="effect1_dropShadow_102_2444"/>
<feBlend mode="normal" in="SourceGraphic" in2="effect1_dropShadow_102_2444" result="shape"/>
</filter>
<filter id="filter14_d_102_2444" x="318" y="1228" width="1116" height="241" filterUnits="userSpaceOnUse" color-interpolation-filters="sRGB">
<feFlood flood-opacity="0" result="BackgroundImageFix"/>
<feColorMatrix in="SourceAlpha" type="matrix" values="0 0 0 0 0 0 0 0 0 0 0 0 0 0 0 0 0 0 127 0" result="hardAlpha"/>
<feOffset dx="4" dy="4"/>
<feGaussianBlur stdDeviation="8"/>
<feComposite in2="hardAlpha" operator="out"/>
<feColorMatrix type="matrix" values="0 0 0 0 0 0 0 0 0 0 0 0 0 0 0 0 0 0 0.25 0"/>
<feBlend mode="normal" in2="BackgroundImageFix" result="effect1_dropShadow_102_2444"/>
<feBlend mode="normal" in="SourceGraphic" in2="effect1_dropShadow_102_2444" result="shape"/>
</filter>
<filter id="filter15_d_102_2444" x="1210" y="1363" width="198" height="56" filterUnits="userSpaceOnUse" color-interpolation-filters="sRGB">
<feFlood flood-opacity="0" result="BackgroundImageFix"/>
<feColorMatrix in="SourceAlpha" type="matrix" values="0 0 0 0 0 0 0 0 0 0 0 0 0 0 0 0 0 0 127 0" result="hardAlpha"/>
<feOffset dx="2" dy="2"/>
<feGaussianBlur stdDeviation="4"/>
<feComposite in2="hardAlpha" operator="out"/>
<feColorMatrix type="matrix" values="0 0 0 0 0 0 0 0 0 0 0 0 0 0 0 0 0 0 0.25 0"/>
<feBlend mode="normal" in2="BackgroundImageFix" result="effect1_dropShadow_102_2444"/>
<feBlend mode="normal" in="SourceGraphic" in2="effect1_dropShadow_102_2444" result="shape"/>
</filter>
<filter id="filter16_d_102_2444" x="318" y="1469" width="1116" height="112" filterUnits="userSpaceOnUse" color-interpolation-filters="sRGB">
<feFlood flood-opacity="0" result="BackgroundImageFix"/>
<feColorMatrix in="SourceAlpha" type="matrix" values="0 0 0 0 0 0 0 0 0 0 0 0 0 0 0 0 0 0 127 0" result="hardAlpha"/>
<feOffset dx="4" dy="4"/>
<feGaussianBlur stdDeviation="8"/>
<feComposite in2="hardAlpha" operator="out"/>
<feColorMatrix type="matrix" values="0 0 0 0 0 0 0 0 0 0 0 0 0 0 0 0 0 0 0.25 0"/>
<feBlend mode="normal" in2="BackgroundImageFix" result="effect1_dropShadow_102_2444"/>
<feBlend mode="normal" in="SourceGraphic" in2="effect1_dropShadow_102_2444" result="shape"/>
</filter>
<filter id="filter17_d_102_2444" x="1210" y="1495" width="197" height="56" filterUnits="userSpaceOnUse" color-interpolation-filters="sRGB">
<feFlood flood-opacity="0" result="BackgroundImageFix"/>
<feColorMatrix in="SourceAlpha" type="matrix" values="0 0 0 0 0 0 0 0 0 0 0 0 0 0 0 0 0 0 127 0" result="hardAlpha"/>
<feOffset dx="2" dy="2"/>
<feGaussianBlur stdDeviation="4"/>
<feComposite in2="hardAlpha" operator="out"/>
<feColorMatrix type="matrix" values="0 0 0 0 0 0 0 0 0 0 0 0 0 0 0 0 0 0 0.25 0"/>
<feBlend mode="normal" in2="BackgroundImageFix" result="effect1_dropShadow_102_2444"/>
<feBlend mode="normal" in="SourceGraphic" in2="effect1_dropShadow_102_2444" result="shape"/>
</filter>
<clipPath id="clip0_102_2444">
<path d="M0 6H236V1030H0V6Z" fill="white"/>
</clipPath>
<clipPath id="clip1_102_2444">
<rect x="276" y="149" width="1124" height="505" rx="15" fill="white"/>
</clipPath>
</defs>
</svg>
