<svg width="1440" height="1024" viewBox="0 0 1440 1024" fill="none" xmlns="http://www.w3.org/2000/svg">
<g clip-path="url(#clip0_74_1173)">
<rect width="1440" height="1024" fill="white"/>
<g filter="url(#filter0_d_74_1173)">
<rect width="1204" height="104" transform="translate(236)" fill="#2E2E2E"/>
<g filter="url(#filter1_d_74_1173)">
<rect x="1335" y="28" width="49" height="49" rx="24.5" fill="#E8E8E8"/>
</g>
<g filter="url(#filter2_d_74_1173)">
<rect x="1283" y="34" width="36" height="36" rx="18" fill="white" shape-rendering="crispEdges"/>
<path d="M1295.45 48.9694C1295.76 46.1403 1298.15 44 1301 44V44C1303.85 44 1306.24 46.1403 1306.55 48.9694L1306.8 51.2356C1306.81 51.2645 1306.81 51.279 1306.81 51.2933C1306.94 52.4169 1307.31 53.5005 1307.88 54.4725C1307.89 54.4849 1307.9 54.4973 1307.91 54.5222L1308.49 55.4856C1309.02 56.3599 1309.28 56.797 1309.22 57.1559C1309.18 57.3946 1309.06 57.6117 1308.88 57.7668C1308.6 58 1308.09 58 1307.07 58H1294.93C1293.91 58 1293.4 58 1293.12 57.7668C1292.94 57.6117 1292.82 57.3946 1292.78 57.1559C1292.72 56.797 1292.98 56.3599 1293.51 55.4856L1294.09 54.5222C1294.1 54.4973 1294.11 54.4849 1294.12 54.4725C1294.69 53.5005 1295.06 52.4169 1295.19 51.2933C1295.19 51.279 1295.19 51.2645 1295.2 51.2356L1295.45 48.9694Z" stroke="#262626"/>
<path d="M1298.1 58.4059C1298.27 59.1501 1298.65 59.8077 1299.17 60.2767C1299.7 60.7458 1300.34 61 1301 61C1301.66 61 1302.3 60.7458 1302.83 60.2767C1303.35 59.8077 1303.73 59.1501 1303.9 58.4059" stroke="#262626" stroke-linecap="round"/>
<circle cx="1313" cy="38" r="4" fill="#808080"/>
</g>
<g filter="url(#filter3_d_74_1173)">
<rect x="1231" y="34" width="36" height="36" rx="18" fill="white"/>
<circle cx="1248" cy="51" r="6" stroke="#262626"/>
<path d="M1248 48C1247.61 48 1247.22 48.0776 1246.85 48.2284C1246.49 48.3791 1246.16 48.6001 1245.88 48.8787C1245.6 49.1573 1245.38 49.488 1245.23 49.852C1245.08 50.2159 1245 50.606 1245 51" stroke="#262626" stroke-linecap="round"/>
<path d="M1257 60L1254 57" stroke="#262626" stroke-linecap="round"/>
</g>
<g filter="url(#filter4_d_74_1173)">
<rect x="276" y="34" width="157" height="36" rx="18" fill="white"/>
<path d="M411 49L405 55L399 49" stroke="#262626" stroke-width="2" stroke-linecap="round" stroke-linejoin="round"/>
<rect x="292" y="48" width="100" height="7" rx="3.5" fill="black"/>
</g>
<path d="M1410 50L1404 56L1398 50" stroke="white" stroke-width="2" stroke-linecap="round" stroke-linejoin="round"/>
</g>
<g clip-path="url(#clip1_74_1173)">
<mask id="path-14-inside-1_74_1173" fill="white">
<path d="M0 0H236V1024H0V0Z"/>
</mask>
<path d="M0 0H236V1024H0V0Z" fill="#2E2E2E"/>
<rect x="16" y="192" width="16" height="16" fill="#C4C4C4"/>
<rect x="48" y="196" width="91" height="9" rx="4.5" fill="white"/>
<rect x="16" y="232" width="16" height="16" fill="#C4C4C4"/>
<rect x="48" y="236" width="75" height="9" rx="4.5" fill="white"/>
<rect x="16" y="272" width="16" height="16" fill="#C4C4C4"/>
<rect x="48" y="276" width="100" height="9" rx="4.5" fill="white"/>
<rect x="16" y="312" width="16" height="16" fill="#C4C4C4"/>
<rect x="48" y="316" width="63" height="9" rx="4.5" fill="white"/>
<rect x="16" y="355" width="16" height="16" fill="#C4C4C4"/>
<rect x="48" y="359" width="67" height="9" rx="4.5" fill="white"/>
<rect x="14" y="907" width="16" height="16" fill="#C4C4C4"/>
<rect x="46" y="911" width="67" height="9" rx="4.5" fill="white"/>
<rect x="14" y="947" width="16" height="16" fill="#C4C4C4"/>
<rect x="46" y="951" width="67" height="9" rx="4.5" fill="white"/>
<rect x="14" y="987" width="16" height="16" fill="#C4C4C4"/>
<rect x="46" y="991" width="67" height="9" rx="4.5" fill="white"/>
</g>
<path d="M235 0V1024H237V0H235Z" fill="white" mask="url(#path-14-inside-1_74_1173)"/>
<rect width="1204" height="920" transform="translate(236 104)" fill="white"/>
<g filter="url(#filter5_d_74_1173)">
<g clip-path="url(#clip2_74_1173)">
<rect x="270" y="144" width="1137" height="840" rx="15" fill="white"/>
<rect x="1407" y="144" width="840" height="1160" transform="rotate(90 1407 144)" fill="#E8E8E8"/>
<g filter="url(#filter6_d_74_1173)">
<g clip-path="url(#clip3_74_1173)">
<path d="M1043 165C1043 162.239 1045.24 160 1048 160H1386C1388.76 160 1391 162.239 1391 165V691C1391 693.761 1388.76 696 1386 696H1048C1045.24 696 1043 693.761 1043 691V165Z" fill="white"/>
<g filter="url(#filter7_d_74_1173)">
<rect width="349" height="42" transform="translate(1043 160)" fill="#F2F2F2"/>
<rect x="1051" y="172" width="18" height="18" fill="#D9D9D9"/>
<rect x="1083" y="177" width="52" height="9" rx="4.5" fill="#262626"/>
<rect x="1367" y="172" width="18" height="18" fill="#D9D9D9"/>
</g>
<rect x="1051.5" y="226.5" width="19" height="19" rx="4.5" fill="white"/>
<rect x="1051.5" y="226.5" width="19" height="19" rx="4.5" stroke="#262626"/>
<rect x="1051.5" y="282.5" width="19" height="19" rx="4.5" fill="white"/>
<rect x="1051.5" y="282.5" width="19" height="19" rx="4.5" stroke="#262626"/>
<rect x="1088" y="286" width="105" height="9" rx="4.5" fill="#262626"/>
<rect x="1051.5" y="314.5" width="19" height="19" rx="4.5" fill="white"/>
<rect x="1051.5" y="314.5" width="19" height="19" rx="4.5" stroke="#262626"/>
<rect x="1088" y="318" width="230.4" height="9" rx="4.5" fill="#262626"/>
<rect x="1051.5" y="346.5" width="19" height="19" rx="4.5" fill="white"/>
<rect x="1051.5" y="346.5" width="19" height="19" rx="4.5" stroke="#262626"/>
<rect x="1088" y="350" width="266" height="9" rx="4.5" fill="#262626"/>
<rect x="1051.5" y="378.5" width="19" height="19" rx="4.5" fill="white"/>
<rect x="1051.5" y="378.5" width="19" height="19" rx="4.5" stroke="#262626"/>
<rect x="1088" y="382" width="211.2" height="9" rx="4.5" fill="#262626"/>
<rect x="1051.5" y="410.5" width="19" height="19" rx="4.5" fill="white"/>
<rect x="1051.5" y="410.5" width="19" height="19" rx="4.5" stroke="#262626"/>
<rect x="1088" y="414" width="238" height="9" rx="4.5" fill="#262626"/>
<rect x="1051.5" y="444.5" width="19" height="19" rx="4.5" fill="white"/>
<rect x="1051.5" y="444.5" width="19" height="19" rx="4.5" stroke="#262626"/>
<rect x="1088" y="446" width="208" height="9" rx="4.5" fill="#262626"/>
<rect x="1051.5" y="476.5" width="19" height="19" rx="4.5" fill="white"/>
<rect x="1051.5" y="476.5" width="19" height="19" rx="4.5" stroke="#262626"/>
<rect x="1088" y="478" width="230.4" height="9" rx="4.5" fill="#262626"/>
<rect x="1051.5" y="506.5" width="19" height="19" rx="4.5" fill="white"/>
<rect x="1051.5" y="506.5" width="19" height="19" rx="4.5" stroke="#262626"/>
<rect x="1088" y="510" width="241" height="9" rx="4.5" fill="#262626"/>
<rect x="1051.5" y="538.5" width="19" height="19" rx="4.5" fill="white"/>
<rect x="1051.5" y="538.5" width="19" height="19" rx="4.5" stroke="#262626"/>
<rect x="1088" y="542" width="172.8" height="9" rx="4.5" fill="#262626"/>
<rect x="1051.5" y="570.5" width="19" height="19" rx="4.5" fill="white"/>
<rect x="1051.5" y="570.5" width="19" height="19" rx="4.5" stroke="#262626"/>
<rect x="1086" y="574" width="182.4" height="9" rx="4.5" fill="#262626"/>
<rect x="1087" y="230" width="72" height="9" rx="4.5" fill="#262626"/>
<rect x="1086" y="630" width="63" height="9" rx="4.5" fill="#262626"/>
<rect x="1086" y="670" width="215" height="8" rx="4" fill="#262626"/>
</g>
</g>
<g filter="url(#filter8_d_74_1173)">
<rect x="286" y="160" width="243" height="336" rx="15" fill="white"/>
<circle cx="307" cy="179" r="6" stroke="#262626"/>
<path d="M307 176C306.606 176 306.216 176.078 305.852 176.228C305.488 176.379 305.157 176.6 304.879 176.879C304.6 177.157 304.379 177.488 304.228 177.852C304.078 178.216 304 178.606 304 179" stroke="#262626" stroke-linecap="round"/>
<path d="M316 188L313 185" stroke="#262626" stroke-linecap="round"/>
<rect x="324" y="176" width="52" height="8" rx="4" fill="#757575"/>
<rect x="324" y="219" width="49" height="6" rx="3" fill="#262626"/>
<rect x="324" y="261" width="35" height="6" rx="3" fill="#262626"/>
<rect x="324" y="261" width="35" height="6" rx="3" fill="#262626"/>
<rect x="324" y="429" width="60" height="6" rx="3" fill="#262626"/>
<rect x="307" y="481" width="201.6" height="8" rx="4" fill="#787878"/>
<rect x="324" y="303" width="24" height="6" rx="3" fill="#262626"/>
<rect x="324" y="345" width="35" height="6" rx="3" fill="#262626"/>
<rect x="324" y="387" width="53" height="6" rx="3" fill="#262626"/>
<rect x="324" y="234" width="60" height="6" rx="3" fill="#6E6E6E"/>
<rect x="324" y="276" width="60" height="6" rx="3" fill="#6E6E6E"/>
<rect x="324" y="444" width="60" height="6" rx="3" fill="#6E6E6E"/>
<rect x="324" y="318" width="40" height="6" rx="3" fill="#6E6E6E"/>
<rect x="324" y="360" width="40" height="6" rx="3" fill="#6E6E6E"/>
<rect x="324" y="402" width="40" height="6" rx="3" fill="#6E6E6E"/>
<rect x="297" y="220" width="17" height="17" fill="#D9D9D9"/>
<rect x="297" y="262" width="17" height="17" fill="#D9D9D9"/>
<rect x="297" y="304" width="17" height="17" fill="#D9D9D9"/>
<rect x="297" y="346" width="17" height="17" fill="#D9D9D9"/>
<rect x="297" y="388" width="17" height="17" fill="#D9D9D9"/>
<rect x="297" y="430" width="17" height="17" fill="#D9D9D9"/>
</g>
<g filter="url(#filter9_d_74_1173)">
<rect x="1347" y="848" width="44" height="120" rx="5" fill="white"/>
</g>
<rect x="1361" y="860" width="16" height="16" fill="#C4C4C4"/>
<rect x="1361" y="900" width="16" height="16" fill="#C4C4C4"/>
<rect x="1361" y="940" width="16" height="16" fill="#C4C4C4"/>
<g filter="url(#filter10_d_74_1173)">
<rect x="286" y="930" width="196" height="38" rx="19" fill="white" shape-rendering="crispEdges"/>
<rect x="293" y="945" width="182.4" height="9" rx="4.5" fill="#262626"/>
</g>
<g filter="url(#filter11_d_74_1173)">
<rect x="499" y="930" width="271" height="38" rx="19" fill="white" shape-rendering="crispEdges"/>
<rect x="515" y="945" width="239" height="9" rx="4.5" fill="#262626"/>
</g>
</g>
</g>
<rect x="13" y="19" width="209" height="107" fill="#D9D9D9"/>
</g>
<defs>
<filter id="filter0_d_74_1173" x="220" y="-14" width="1236" height="136" filterUnits="userSpaceOnUse" color-interpolation-filters="sRGB">
<feFlood flood-opacity="0" result="BackgroundImageFix"/>
<feColorMatrix in="SourceAlpha" type="matrix" values="0 0 0 0 0 0 0 0 0 0 0 0 0 0 0 0 0 0 127 0" result="hardAlpha"/>
<feOffset dy="2"/>
<feGaussianBlur stdDeviation="8"/>
<feComposite in2="hardAlpha" operator="out"/>
<feColorMatrix type="matrix" values="0 0 0 0 1 0 0 0 0 1 0 0 0 0 1 0 0 0 0.25 0"/>
<feBlend mode="normal" in2="BackgroundImageFix" result="effect1_dropShadow_74_1173"/>
<feBlend mode="normal" in="SourceGraphic" in2="effect1_dropShadow_74_1173" result="shape"/>
</filter>
<filter id="filter1_d_74_1173" x="1329" y="22" width="65" height="65" filterUnits="userSpaceOnUse" color-interpolation-filters="sRGB">
<feFlood flood-opacity="0" result="BackgroundImageFix"/>
<feColorMatrix in="SourceAlpha" type="matrix" values="0 0 0 0 0 0 0 0 0 0 0 0 0 0 0 0 0 0 127 0" result="hardAlpha"/>
<feOffset dx="2" dy="2"/>
<feGaussianBlur stdDeviation="4"/>
<feComposite in2="hardAlpha" operator="out"/>
<feColorMatrix type="matrix" values="0 0 0 0 1 0 0 0 0 1 0 0 0 0 1 0 0 0 0.1 0"/>
<feBlend mode="normal" in2="BackgroundImageFix" result="effect1_dropShadow_74_1173"/>
<feBlend mode="normal" in="SourceGraphic" in2="effect1_dropShadow_74_1173" result="shape"/>
</filter>
<filter id="filter2_d_74_1173" x="1277" y="28" width="52" height="52" filterUnits="userSpaceOnUse" color-interpolation-filters="sRGB">
<feFlood flood-opacity="0" result="BackgroundImageFix"/>
<feColorMatrix in="SourceAlpha" type="matrix" values="0 0 0 0 0 0 0 0 0 0 0 0 0 0 0 0 0 0 127 0" result="hardAlpha"/>
<feOffset dx="2" dy="2"/>
<feGaussianBlur stdDeviation="4"/>
<feComposite in2="hardAlpha" operator="out"/>
<feColorMatrix type="matrix" values="0 0 0 0 1 0 0 0 0 1 0 0 0 0 1 0 0 0 0.1 0"/>
<feBlend mode="normal" in2="BackgroundImageFix" result="effect1_dropShadow_74_1173"/>
<feBlend mode="normal" in="SourceGraphic" in2="effect1_dropShadow_74_1173" result="shape"/>
</filter>
<filter id="filter3_d_74_1173" x="1225" y="28" width="52" height="52" filterUnits="userSpaceOnUse" color-interpolation-filters="sRGB">
<feFlood flood-opacity="0" result="BackgroundImageFix"/>
<feColorMatrix in="SourceAlpha" type="matrix" values="0 0 0 0 0 0 0 0 0 0 0 0 0 0 0 0 0 0 127 0" result="hardAlpha"/>
<feOffset dx="2" dy="2"/>
<feGaussianBlur stdDeviation="4"/>
<feComposite in2="hardAlpha" operator="out"/>
<feColorMatrix type="matrix" values="0 0 0 0 1 0 0 0 0 1 0 0 0 0 1 0 0 0 0.1 0"/>
<feBlend mode="normal" in2="BackgroundImageFix" result="effect1_dropShadow_74_1173"/>
<feBlend mode="normal" in="SourceGraphic" in2="effect1_dropShadow_74_1173" result="shape"/>
</filter>
<filter id="filter4_d_74_1173" x="270" y="28" width="173" height="52" filterUnits="userSpaceOnUse" color-interpolation-filters="sRGB">
<feFlood flood-opacity="0" result="BackgroundImageFix"/>
<feColorMatrix in="SourceAlpha" type="matrix" values="0 0 0 0 0 0 0 0 0 0 0 0 0 0 0 0 0 0 127 0" result="hardAlpha"/>
<feOffset dx="2" dy="2"/>
<feGaussianBlur stdDeviation="4"/>
<feComposite in2="hardAlpha" operator="out"/>
<feColorMatrix type="matrix" values="0 0 0 0 1 0 0 0 0 1 0 0 0 0 1 0 0 0 0.1 0"/>
<feBlend mode="normal" in2="BackgroundImageFix" result="effect1_dropShadow_74_1173"/>
<feBlend mode="normal" in="SourceGraphic" in2="effect1_dropShadow_74_1173" result="shape"/>
</filter>
<filter id="filter5_d_74_1173" x="258" y="132" width="1169" height="872" filterUnits="userSpaceOnUse" color-interpolation-filters="sRGB">
<feFlood flood-opacity="0" result="BackgroundImageFix"/>
<feColorMatrix in="SourceAlpha" type="matrix" values="0 0 0 0 0 0 0 0 0 0 0 0 0 0 0 0 0 0 127 0" result="hardAlpha"/>
<feOffset dx="4" dy="4"/>
<feGaussianBlur stdDeviation="8"/>
<feComposite in2="hardAlpha" operator="out"/>
<feColorMatrix type="matrix" values="0 0 0 0 0 0 0 0 0 0 0 0 0 0 0 0 0 0 0.25 0"/>
<feBlend mode="normal" in2="BackgroundImageFix" result="effect1_dropShadow_74_1173"/>
<feBlend mode="normal" in="SourceGraphic" in2="effect1_dropShadow_74_1173" result="shape"/>
</filter>
<filter id="filter6_d_74_1173" x="1037" y="154" width="364" height="552" filterUnits="userSpaceOnUse" color-interpolation-filters="sRGB">
<feFlood flood-opacity="0" result="BackgroundImageFix"/>
<feColorMatrix in="SourceAlpha" type="matrix" values="0 0 0 0 0 0 0 0 0 0 0 0 0 0 0 0 0 0 127 0" result="hardAlpha"/>
<feOffset dx="2" dy="2"/>
<feGaussianBlur stdDeviation="4"/>
<feComposite in2="hardAlpha" operator="out"/>
<feColorMatrix type="matrix" values="0 0 0 0 0 0 0 0 0 0 0 0 0 0 0 0 0 0 0.25 0"/>
<feBlend mode="normal" in2="BackgroundImageFix" result="effect1_dropShadow_74_1173"/>
<feBlend mode="normal" in="SourceGraphic" in2="effect1_dropShadow_74_1173" result="shape"/>
</filter>
<filter id="filter7_d_74_1173" x="1035" y="154" width="365" height="58" filterUnits="userSpaceOnUse" color-interpolation-filters="sRGB">
<feFlood flood-opacity="0" result="BackgroundImageFix"/>
<feColorMatrix in="SourceAlpha" type="matrix" values="0 0 0 0 0 0 0 0 0 0 0 0 0 0 0 0 0 0 127 0" result="hardAlpha"/>
<feOffset dy="2"/>
<feGaussianBlur stdDeviation="4"/>
<feComposite in2="hardAlpha" operator="out"/>
<feColorMatrix type="matrix" values="0 0 0 0 0 0 0 0 0 0 0 0 0 0 0 0 0 0 0.25 0"/>
<feBlend mode="normal" in2="BackgroundImageFix" result="effect1_dropShadow_74_1173"/>
<feBlend mode="normal" in="SourceGraphic" in2="effect1_dropShadow_74_1173" result="shape"/>
</filter>
<filter id="filter8_d_74_1173" x="280" y="154" width="259" height="352" filterUnits="userSpaceOnUse" color-interpolation-filters="sRGB">
<feFlood flood-opacity="0" result="BackgroundImageFix"/>
<feColorMatrix in="SourceAlpha" type="matrix" values="0 0 0 0 0 0 0 0 0 0 0 0 0 0 0 0 0 0 127 0" result="hardAlpha"/>
<feOffset dx="2" dy="2"/>
<feGaussianBlur stdDeviation="4"/>
<feComposite in2="hardAlpha" operator="out"/>
<feColorMatrix type="matrix" values="0 0 0 0 0 0 0 0 0 0 0 0 0 0 0 0 0 0 0.02 0"/>
<feBlend mode="normal" in2="BackgroundImageFix" result="effect1_dropShadow_74_1173"/>
<feBlend mode="normal" in="SourceGraphic" in2="effect1_dropShadow_74_1173" result="shape"/>
</filter>
<filter id="filter9_d_74_1173" x="1341" y="842" width="60" height="136" filterUnits="userSpaceOnUse" color-interpolation-filters="sRGB">
<feFlood flood-opacity="0" result="BackgroundImageFix"/>
<feColorMatrix in="SourceAlpha" type="matrix" values="0 0 0 0 0 0 0 0 0 0 0 0 0 0 0 0 0 0 127 0" result="hardAlpha"/>
<feOffset dx="2" dy="2"/>
<feGaussianBlur stdDeviation="4"/>
<feComposite in2="hardAlpha" operator="out"/>
<feColorMatrix type="matrix" values="0 0 0 0 0 0 0 0 0 0 0 0 0 0 0 0 0 0 0.25 0"/>
<feBlend mode="normal" in2="BackgroundImageFix" result="effect1_dropShadow_74_1173"/>
<feBlend mode="normal" in="SourceGraphic" in2="effect1_dropShadow_74_1173" result="shape"/>
</filter>
<filter id="filter10_d_74_1173" x="282" y="926" width="212" height="54" filterUnits="userSpaceOnUse" color-interpolation-filters="sRGB">
<feFlood flood-opacity="0" result="BackgroundImageFix"/>
<feColorMatrix in="SourceAlpha" type="matrix" values="0 0 0 0 0 0 0 0 0 0 0 0 0 0 0 0 0 0 127 0" result="hardAlpha"/>
<feOffset dx="4" dy="4"/>
<feGaussianBlur stdDeviation="4"/>
<feComposite in2="hardAlpha" operator="out"/>
<feColorMatrix type="matrix" values="0 0 0 0 0 0 0 0 0 0 0 0 0 0 0 0 0 0 0.25 0"/>
<feBlend mode="normal" in2="BackgroundImageFix" result="effect1_dropShadow_74_1173"/>
<feBlend mode="normal" in="SourceGraphic" in2="effect1_dropShadow_74_1173" result="shape"/>
</filter>
<filter id="filter11_d_74_1173" x="495" y="926" width="287" height="54" filterUnits="userSpaceOnUse" color-interpolation-filters="sRGB">
<feFlood flood-opacity="0" result="BackgroundImageFix"/>
<feColorMatrix in="SourceAlpha" type="matrix" values="0 0 0 0 0 0 0 0 0 0 0 0 0 0 0 0 0 0 127 0" result="hardAlpha"/>
<feOffset dx="4" dy="4"/>
<feGaussianBlur stdDeviation="4"/>
<feComposite in2="hardAlpha" operator="out"/>
<feColorMatrix type="matrix" values="0 0 0 0 0 0 0 0 0 0 0 0 0 0 0 0 0 0 0.25 0"/>
<feBlend mode="normal" in2="BackgroundImageFix" result="effect1_dropShadow_74_1173"/>
<feBlend mode="normal" in="SourceGraphic" in2="effect1_dropShadow_74_1173" result="shape"/>
</filter>
<clipPath id="clip0_74_1173">
<rect width="1440" height="1024" fill="white"/>
</clipPath>
<clipPath id="clip1_74_1173">
<path d="M0 0H236V1024H0V0Z" fill="white"/>
</clipPath>
<clipPath id="clip2_74_1173">
<rect x="270" y="144" width="1137" height="840" rx="15" fill="white"/>
</clipPath>
<clipPath id="clip3_74_1173">
<path d="M1043 165C1043 162.239 1045.24 160 1048 160H1386C1388.76 160 1391 162.239 1391 165V691C1391 693.761 1388.76 696 1386 696H1048C1045.24 696 1043 693.761 1043 691V165Z" fill="white"/>
</clipPath>
</defs>
</svg>
