<?xml version="1.0" encoding="UTF-8"?><svg xmlns="http://www.w3.org/2000/svg" xmlns:xlink="http://www.w3.org/1999/xlink" viewBox="0 0 24 24"><defs><radialGradient id="d" cx="8.9023" cy="6.7293" fx="8.9023" fy="6.7293" r="13.5408" gradientTransform="translate(.1177 -.1165) rotate(.5592)" gradientUnits="userSpaceOnUse"><stop offset="0" stop-color="#f2f2f2"/><stop offset="1" stop-color="#d6d6d6"/></radialGradient><clipPath id="e"><circle cx="12" cy="12" r="11.9999" transform="translate(-.1212 .1225) rotate(-.5819)" style="fill:none;"/></clipPath></defs><g style="isolation:isolate;"><g id="b"><g id="c"><circle cx="11.9999" cy="12" r="11.9999" transform="translate(-.1165 .1177) rotate(-.5592)" style="fill:url(#d);"/><g style="clip-path:url(#e);"><rect x="-2.1281" y="-.315" width="29.0331" height="8.3281" style="fill:#dc0031;"/><rect x="-2.1281" y="7.9573" width="29.0331" height="8.3281" style="fill:#fff;"/><rect x="-2.1281" y="16.2295" width="29.0331" height="8.3281" style="fill:#0032a0;"/></g><circle cx="11.9999" cy="12" r="11.9999" transform="translate(-.1165 .1177) rotate(-.5592)" style="fill:none;"/><g style="mix-blend-mode:overlay; opacity:.6;"><path d="m1.0113,16.2456C1.0113,8.579,7.2264,2.364,14.893,2.364c1.9226,0,3.7537.3909,5.4185,1.0975C18.1615,1.3327,15.2043.0176,11.9397.0176,5.3678.0176.0404,5.345.0404,11.9168c0,1.68.3489,3.2784.977,4.7275-.0037-.1325-.0061-.2652-.0061-.3987Z" style="opacity:0;"/><path d="m1.0102,16.0968c.0299-7.6164,6.1485-13.7087,13.7412-13.7633,1.8994-.0122,3.7755.3679,5.4219,1.0667C18.0476,1.3091,15.0882.0349,11.862.0523,5.3449.0934.0935,5.3534.0686,11.8497c-.0064,1.6608.3318,3.2398.9429,4.6768-.0036-.131-.0017-.2976-.0013-.4296Z" style="fill:#080808; opacity:.0323;"/><path d="m1.009,15.9481c.0598-7.5663,6.082-13.5358,13.6007-13.645,1.8761-.0244,3.7973.3449,5.4252,1.0358C17.9336,1.2855,14.972.0522,11.7844.0871,5.322.1693.1466,5.3619.0968,11.7825c-.0128,1.6415.3146,3.2012.9088,4.6261-.0036-.1296.0026-.33.0035-.4605Z" style="fill:#101010; opacity:.0645;"/><path d="m1.0079,15.7994c.0897-7.5162,6.0155-13.363,13.4603-13.5267,1.8529-.0367,3.8192.322,5.4286,1.005C17.8197,1.2619,14.8559.0695,11.7067.1219,5.2991.2452.1997,5.3703.1251,11.7153c-.0191,1.6223.2975,3.1626.8746,4.5754-.0035-.1281.0069-.3623.0082-.4913Z" style="fill:#191919; opacity:.0968;"/><path d="m1.0067,15.6507c.1196-7.4661,5.949-13.1901,13.3198-13.4085,1.8297-.0489,3.841.299,5.4319.9742C17.7058,1.2384,14.7398.0868,11.6291.1567,5.2762.3211.2528,5.3788.1533,11.6482c-.0255,1.6031.2804,3.124.8405,4.5247-.0035-.1266.0113-.3947.013-.5222Z" style="fill:#212121; opacity:.129;"/><path d="m1.0056,15.5019c.1496-7.4159,5.8824-13.0173,13.1794-13.2902,1.8065-.0611,3.8628.276,5.4353.9433C17.5919,1.2148,14.6234.0977,11.5514.1915,5.2528.3838.3059,5.3872.1815,11.581c-.0319,1.5839.2633,3.0854.8064,4.474-.0035-.1252.0156-.4271.0177-.553Z" style="fill:#292929; opacity:.1613;"/><path d="m1.0045,15.3532C1.1839,7.9874,6.8197,2.4935,14.0434,2.1812c1.7831-.0771,3.8847.253,5.4386.9125C17.478,1.1912,14.5072.114,11.4738.2263,5.2297.4575.359,5.3957.2097,11.5138c-.0383,1.5646.2461,3.0469.7723,4.4233-.0034-.1237.02-.4595.0225-.5839Z" style="fill:#313131; opacity:.1935;"/><path d="m1.0033,15.2045C1.1963,7.8883,6.7518,2.5156,13.9018,2.1508c1.7598-.0898,3.9065.23,5.442.8817C17.3641,1.1676,14.391.1303,11.3961.2611,5.2066.5313.4121,5.4041.2379,11.4467c-.0447,1.5454.229,3.0083.7381,4.3726-.0034-.1222.024-.4918.0273-.6147Z" style="fill:#3a3a3a; opacity:.2258;"/><path d="m1.0022,15.0557C1.2233,7.7896,6.6839,2.5378,13.7602,2.1203c1.7365-.1025,3.9283.207,5.4454.8508C17.2501,1.144,14.2748.1467,11.3185.2959,5.1835.6053.4652,5.4126.2661,11.3795c-.0511,1.5262.2119,2.9697.704,4.3218-.0034-.1207.0283-.5242.032-.6456Z" style="fill:#424242; opacity:.2581;"/><path d="m1.001,14.907C1.2504,7.6908,6.616,2.5602,13.6186,2.0899c1.7132-.1151,3.9502.184,5.4487.82C17.1362,1.1204,14.1585.1633,11.2408.3306,5.1603.6795.5183,5.421.2943,11.3123c-.0574,1.507.1947,2.9311.6699,4.2711-.0033-.1193.0327-.5566.0368-.6765Z" style="fill:#4a4a4a; opacity:.2903;"/><path d="m.9999,14.7583C1.2778,7.5921,6.548,2.5828,13.477,2.0594c1.6899-.1277,3.972.161,5.4521.7891C17.0223,1.0969,14.0423.1799,11.1632.3654,5.1371.7538.5714,5.4295.3225,11.2452c-.0638,1.4877.1776,2.8925.6358,4.2204-.0033-.1178.037-.589.0416-.7073Z" style="fill:#525252; opacity:.3226;"/><path d="m.9987,14.6096C1.3052,7.4933,6.48,2.6055,13.3354,2.0289c1.6666-.1402,3.9938.138,5.4554.7583C16.9084,1.0733,13.926.1966,11.0855.4002,5.1139.8283.6245,5.4379.3508,11.178c-.0702,1.4685.1605,2.8539.6016,4.1697-.0033-.1163.0413-.6213.0463-.7382Z" style="fill:#5a5a5a; opacity:.3548;"/><path d="m.9976,14.4608C1.3329,7.3946,6.412,2.6285,13.1938,1.9985c1.6434-.1527,4.0157.1151,5.4588.7275C16.7945,1.0497,13.8098.2134,11.0079.435,5.0907.903.6776,5.4464.379,11.1108c-.0766,1.4493.1434,2.8153.5675,4.119-.0032-.1149.0456-.6537.0511-.769Z" style="fill:#636363; opacity:.3871;"/><path d="m.9964,14.3121C1.3607,7.2958,6.344,2.6516,13.0522,1.968c1.6201-.1651,4.0375.0921,5.4621.6966C16.6806,1.0261,13.6935.2303,10.9302.4698,5.0675.9779.7307,5.4548.4072,11.0437c-.083,1.4301.1262,2.7767.5334,4.0683-.0032-.1134.0499-.6861.0559-.7999Z" style="fill:#6b6b6b; opacity:.4194;"/><path d="m.9953,14.1634C1.3888,7.197,6.2761,2.675,12.9106,1.9375c1.5968-.1775,4.0593.0691,5.4655.6658-1.8094-1.6008-4.7988-2.356-7.5235-2.0987C5.0443,1.053.7838,5.4633.4354,10.9765c-.0893,1.4109.1091,2.7381.4993,4.0176-.0031-.1119.0543-.7185.0606-.8307Z" style="fill:#737373; opacity:.4516;"/><path d="m.9941,14.0147C1.417,7.0983,6.2081,2.6985,12.769,1.9071c1.5735-.1898,4.0811.0461,5.4688.635-1.7851-1.5631-4.7768-2.2776-7.4629-2.0027C5.0211,1.1284.8369,5.4717.4636,10.9094c-.0957,1.3916.092,2.6996.4651,3.9669-.0031-.1104.0586-.7508.0654-.8616Z" style="fill:#7b7b7b; opacity:.4839;"/><path d="m.993,13.8659C1.4454,6.9995,6.1401,2.7223,12.6274,1.8766c1.5502-.2021,4.103.0231,5.4722.6041-1.7607-1.5254-4.7548-2.1991-7.4023-1.9066C4.998,1.2039.89,5.4802.4918,10.8422c-.1021,1.3724.0748,2.661.431,3.9162-.0031-.109.0629-.7832.0701-.8925Z" style="fill:#848484; opacity:.5161;"/><path d="m.9918,13.7172C1.4741,6.9008,6.0721,2.7463,12.4858,1.8461c1.5269-.2143,4.1248.0001,5.4755.5733-1.7364-1.4876-4.7328-2.1205-7.3417-1.8105C4.9748,1.2797.9431,5.4886.52,10.775c-.1085,1.3532.0577,2.6224.3969,3.8655-.003-.1075.0673-.8156.0749-.9233Z" style="fill:#8c8c8c; opacity:.5484;"/><path d="m.9907,13.5685C1.503,6.802,6.0042,2.7706,12.3442,1.8157c1.5036-.2265,4.1466-.0229,5.4789.5425-1.7121-1.4499-4.7108-2.0417-7.2811-1.7144C4.9516,1.3557.9962,5.4971.5483,10.7079c-.1149,1.334.0406,2.5838.3628,3.8148-.003-.106.0716-.848.0797-.9542Z" style="fill:#949494; opacity:.5806;"/><path d="m.9895,13.4197C1.5321,6.7033,5.9363,2.7951,12.2026,1.7852c1.4803-.2386,4.1685-.0459,5.4822.5116-1.6877-1.4122-4.6887-1.9629-7.2205-1.6183C4.9285,1.4319,1.0493,5.5055.5765,10.6407c-.1212,1.3147.0235,2.5452.3286,3.7641-.003-.1046.076-.8804.0844-.985Z" style="fill:#9c9c9c; opacity:.6129;"/><path d="m.9884,13.271C1.5614,6.6046,5.8685,2.8198,12.061,1.7547c1.4571-.2506,4.1903-.0689,5.4856.4808-1.6634-1.3745-4.6667-1.8839-7.1599-1.5222C4.9055,1.5085,1.1024,5.514.6047,10.5735c-.1276,1.2955.0063,2.5066.2945,3.7134-.0029-.1031.0803-.9127.0892-1.0159Z" style="fill:#a5a5a5; opacity:.6452;"/><path d="m.9872,13.1223C1.591,6.506,5.8007,2.8449,11.9194,1.7243c1.4338-.2626,4.2121-.0919,5.4889.4499-1.6391-1.3368-4.6446-1.8048-7.0993-1.4261C4.8824,1.5853,1.1555,5.5224.6329,10.5064c-.134,1.2763-.0108,2.468.2604,3.6627-.0029-.1016.0847-.9451.094-1.0468Z" style="fill:#adadad; opacity:.6774;"/><path d="m.9861,12.9736C1.6209,6.4073,5.733,2.8702,11.7778,1.6938c1.4106-.2745,4.234-.1148,5.4923.4191-1.6147-1.299-4.6225-1.7256-7.0387-1.33C4.8595,1.6623,1.2086,5.5308.6611,10.4392c-.1404,1.2571-.0279,2.4294.2263,3.612-.0028-.1001.089-.9775.0987-1.0776Z" style="fill:#b5b5b5; opacity:.7097;"/><path d="m.985,12.8248C1.6511,6.3088,5.6653,2.8957,11.6362,1.6633c1.3874-.2864,4.2558-.1378,5.4956.3883-1.5904-1.2613-4.6004-1.6463-6.9781-1.2339C4.8366,1.7397,1.2617,5.5393.6893,10.372c-.1468,1.2378-.0451,2.3908.1921,3.5613-.0028-.0987.0934-1.0099.1035-1.1085Z" style="fill:#bdbdbd; opacity:.7419;"/><path d="m.9838,12.6761C1.6815,6.2102,5.5978,2.9216,11.4946,1.6329c1.3642-.2981,4.2776-.1608,5.499.3574-1.5661-1.2236-4.5782-1.5668-6.9175-1.1378C4.8137,1.8174,1.3148,5.5477.7175,10.3049c-.1532,1.2186-.0622,2.3523.158,3.5106-.0028-.0972.0978-1.0422.1082-1.1393Z" style="fill:#c5c5c5; opacity:.7742;"/><path d="m.9827,12.5274C1.7122,6.1117,5.5303,2.9478,11.353,1.6024c1.341-.3099,4.2995-.1838,5.5023.3266-1.5418-1.1859-4.556-1.4872-6.8569-1.0418C4.791,1.8953,1.3679,5.5562.7458,10.2377c-.1595,1.1994-.0793,2.3137.1239,3.4599-.0027-.0957.1021-1.0746.113-1.1702Z" style="fill:#cecece; opacity:.8065;"/><path d="m.9815,12.3786C1.7433,6.0133,5.463,2.9743,11.2114,1.5719c1.3178-.3215,4.3213-.2068,5.5057.2958-1.5174-1.1482-4.5338-1.4075-6.7963-.9457C4.7684,1.9736,1.421,5.5646.774,10.1705c-.1659,1.1802-.0964,2.2751.0898,3.4091-.0027-.0943.1065-1.107.1178-1.201Z" style="fill:#d6d6d6; opacity:.8387;"/><path d="m.9804,12.2299C1.7746,5.9149,5.3958,3.0012,11.0698,1.5415c1.2947-.3331,4.3431-.2298,5.509.2649-1.4931-1.1104-4.5115-1.3276-6.7357-.8496C4.7459,2.0523,1.4741,5.5731.8022,10.1034c-.1723,1.1609-.1136,2.2365.0556,3.3584-.0027-.0928.1109-1.1393.1225-1.2319Z" style="fill:#dedede; opacity:.871;"/><path d="m.9792,12.0812C1.8167,5.818,5.3318,3.0393,10.9282,1.511c1.2723-.3421,4.365-.2528,5.5124.2341-1.4688-1.0727-4.4891-1.2476-6.6751-.7535C4.7235,2.1313,1.5272,5.5815.8304,10.0362c-.1787,1.1417-.1307,2.1979.0215,3.3077-.0026-.0913.1154-1.1717.1273-1.2628Z" style="fill:#e6e6e6; opacity:.9032;"/><path d="m.9781,11.9325C1.8455,5.7194,5.2641,3.0635,10.7866,1.4805c1.2491-.3543,4.3868-.2758,5.5157.2033-1.4444-1.035-4.4659-1.1641-6.6145-.6574C4.7032,2.2185,1.5803,5.59.8586,9.969c-.1851,1.1225-.1478,2.1593-.0126,3.257-.0026-.0899.1198-1.2041.1321-1.2936Z" style="fill:#efefef; opacity:.9355;"/><path d="m.9769,11.7837C1.8742,5.6208,5.1965,3.0876,10.645,1.4501c1.2259-.3665,4.4086-.2988,5.5191.1724-1.4201-.9973-4.4438-1.0854-6.5539-.5613C4.6802,2.2944,1.6334,5.5984.8868,9.9019c-.1914,1.1033-.1649,2.1207-.0467,3.2063-.0025-.0884.1241-1.2364.1368-1.3245Z" style="fill:#f7f7f7; opacity:.9677;"/><path d="m.9758,11.635C1.903,5.5221,5.1288,3.1117,10.5034,1.4196c1.2027-.3787,4.4305-.3218,5.5224.1416-1.3958-.9596-4.4217-1.0068-6.4934-.4652C4.6573,2.3703,1.6865,5.6069.915,9.8347c-.1978,1.0841-.1821,2.0821-.0809,3.1556-.0025-.0869.1285-1.2688.1416-1.3553Z" style="fill:#fff;"/></g><g style="mix-blend-mode:overlay; opacity:.2;"><path d="m22.1558,6.0209c.9756,7.5492-4.3534,14.4601-11.9027,15.4358-1.8932.2446-3.746.0927-5.4753-.3912,2.3881,1.8227,5.4674,2.7414,8.6821,2.3259,6.4713-.8363,11.0393-6.7603,10.203-13.2316-.2138-1.6543-.7608-3.1839-1.5637-4.5309.0205.13.0397.2604.0567.3919Z" style="opacity:0;"/><path d="m22.1759,6.1672c.9398,7.5037-4.3099,14.2815-11.7795,15.3015-1.8688.2537-3.7646.1181-5.4747-.3604,2.3593,1.7886,5.4356,2.6668,8.6102,2.239,6.4122-.8698,10.9139-6.7177,10.1117-13.1177-.2051-1.6362-.739-3.148-1.5236-4.4853.0202.1286.0396.2928.056.4229Z" style="fill:#080808; opacity:.0323;"/><path d="m22.1959,6.3135c.904,7.4582-4.2664,14.1028-11.6562,15.1671-1.8443.2628-3.7831.1436-5.4741-.3296,2.3305,1.7546,5.4038,2.5922,8.5383,2.1521,6.3531-.9034,10.7885-6.6751,10.0204-13.0038-.1963-1.6181-.7172-3.1122-1.4836-4.4397.02.1271.0394.3253.0552.4539Z" style="fill:#101010; opacity:.0645;"/><path d="m22.216,6.4598c.8682,7.4126-4.2229,13.9241-11.533,15.0328-1.8199.2719-3.8017.169-5.4734-.2988,2.3018,1.7206,5.372,2.5176,8.4664,2.0652,6.2939-.9369,10.6631-6.6325,9.9291-12.89-.1876-1.6-.6954-3.0764-1.4435-4.3941.0198.1257.0393.3577.0544.4849Z" style="fill:#191919; opacity:.0968;"/><path d="m22.2361,6.6061c.8323,7.3671-4.1794,13.7455-11.4097,14.8985-1.7955.2809-3.8203.1944-5.4728-.268,2.273,1.6865,5.3402,2.443,8.3945,1.9783,6.2348-.9704,10.5377-6.59,9.8379-12.7761-.1789-1.5818-.6736-3.0406-1.4035-4.3485.0196.1242.0391.3901.0537.5159Z" style="fill:#212121; opacity:.129;"/><path d="m22.2561,6.7524c.7965,7.3215-4.1359,13.5668-11.2865,14.7642-1.7711.29-3.8389.2198-5.4722-.2372,2.2443,1.6525,5.3095,2.3747,8.3226,1.8914,6.1778-.9909,10.4123-6.5474,9.7466-12.6622-.1701-1.5637-.6519-3.0048-1.3634-4.3029.0193.1228.039.4226.0529.5469Z" style="fill:#292929; opacity:.1613;"/><path d="m22.2762,6.8987c.7607,7.276-4.0898,13.4031-11.1632,14.6298-1.746.3028-3.8574.2452-5.4716-.2064,2.2155,1.6184,5.2779,2.3011,8.2507,1.8045,6.1191-1.0223,10.2869-6.5048,9.6553-12.5484-.1614-1.5456-.6301-2.9689-1.3234-4.2574.0191.1214.0388.455.0521.5779Z" style="fill:#313131; opacity:.1935;"/><path d="m22.2962,7.045c.7407,7.2288-4.0458,13.2264-11.04,14.4955-1.7215.3124-3.876.2706-5.471-.1756,2.1867,1.5844,5.2463,2.2275,8.1788,1.7176,6.0604-1.0538,10.1615-6.4622,9.564-12.4345-.1527-1.5275-.6083-2.9331-1.2833-4.2118.0189.1199.0389.4874.0514.6088Z" style="fill:#3a3a3a; opacity:.2258;"/><path d="m22.3163,7.1913c.7067,7.1832-4.0018,13.0496-10.9167,14.3612-1.6969.3219-3.8946.2961-5.4703-.1448,2.158,1.5503,5.2148,2.1537,8.1069,1.6307,6.0018-1.0855,10.0361-6.4196,9.4728-12.3206-.1439-1.5094-.5865-2.8973-1.2432-4.1662.0187.1185.0388.5198.0506.6398Z" style="fill:#424242; opacity:.2581;"/><path d="m22.3363,7.3376c.6725,7.1376-3.9578,12.8726-10.7935,14.2269-1.6724.3313-3.9132.3215-5.4697-.114,2.1292,1.5163,5.1832,2.0799,8.035,1.5437,5.9431-1.1173,9.9107-6.3771,9.3815-12.2068-.1352-1.4912-.5648-2.8615-1.2032-4.1206.0185.117.0387.5523.0499.6708Z" style="fill:#4a4a4a; opacity:.2903;"/><path d="m22.3564,7.484c.6381,7.092-3.9138,12.6954-10.6702,14.0925-1.6478.3408-3.9317.3469-5.4691-.0833,2.1005,1.4822,5.1516,2.006,7.9631,1.4568,5.8844-1.1493,9.7853-6.3345,9.2902-12.0929-.1265-1.4731-.543-2.8257-1.1631-4.075.0182.1156.0386.5847.0491.7018Z" style="fill:#525252; opacity:.3226;"/><path d="m22.3765,7.6303c.6035,7.0464-3.8698,12.518-10.547,13.9582-1.6233.3501-3.9503.3723-5.4685-.0525,2.0717,1.4482,5.12,1.9319,7.8912,1.3699,5.8257-1.1815,9.6599-6.2919,9.199-11.9791-.1178-1.455-.5212-2.7898-1.1231-4.0294.018.1141.0384.6171.0483.7328Z" style="fill:#5a5a5a; opacity:.3548;"/><path d="m22.3965,7.7766c.5688,7.0009-3.8259,12.3405-10.4237,13.8239-1.5988.3595-3.9689.3977-5.4678-.0217,2.0429,1.4141,5.0884,1.8578,7.8193,1.283,5.767-1.2139,9.5345-6.2493,9.1077-11.8652-.109-1.4369-.4994-2.754-1.083-3.9838.0178.1127.0383.6496.0476.7638Z" style="fill:#636363; opacity:.3871;"/><path d="m22.4166,7.9229c.5339,6.9554-3.7819,12.1627-10.3005,13.6895-1.5743.3687-3.9874.4231-5.4672.0091,2.0142,1.3801,5.0568,1.7836,7.7474,1.1961,5.7083-1.2465,9.4091-6.2068,9.0164-11.7513-.1003-1.4188-.4777-2.7182-1.043-3.9382.0176.1112.0381.682.0468.7948Z" style="fill:#6b6b6b; opacity:.4194;"/><path d="m22.4366,8.0692c.4988,6.9099-3.738,11.9848-10.1772,13.5552-1.5497.378-4.006.4486-5.4666.0399,1.9854,1.3461,5.0252,1.7093,7.6755,1.1092,5.6496-1.2792,9.2837-6.1642,8.9251-11.6375-.0916-1.4007-.4559-2.6824-1.0029-3.8926.0173.1098.038.7144.046.8258Z" style="fill:#737373; opacity:.4516;"/><path d="m22.4567,8.2155c.4636,6.8644-3.6941,11.8066-10.054,13.4209-1.5252.3871-4.0246.474-5.466.0707,1.9567,1.312,4.9936,1.6349,7.6036,1.0223,5.5908-1.3122,9.1583-6.1216,8.8339-11.5236-.0828-1.3825-.4341-2.6466-.9628-3.8471.0171.1084.0379.7468.0453.8568Z" style="fill:#7b7b7b; opacity:.4839;"/><path d="m22.4767,8.3618c.4281,6.819-3.6502,11.6283-9.9307,13.2866-1.5007.3963-4.0432.4994-5.4653.1015,1.9279,1.278,4.9619,1.5604,7.5317.9354,5.532-1.3454,9.0329-6.079,8.7426-11.4097-.0741-1.3644-.4123-2.6107-.9228-3.8015.0169.1069.0377.7793.0445.8877Z" style="fill:#848484; opacity:.5161;"/><path d="m22.4968,8.5081c.3924,6.7736-3.6064,11.4497-9.8074,13.1522-1.4762.4053-4.0617.5248-5.4647.1323,1.8992,1.2439,4.9303,1.4858,7.4598.8485,5.4731-1.3788,8.9075-6.0365,8.6513-11.2959-.0654-1.3463-.3905-2.5749-.8827-3.7559.0167.1055.0376.8117.0438.9187Z" style="fill:#8c8c8c; opacity:.5484;"/><path d="m22.5169,8.6544c.3565,6.7281-3.5627,11.2708-9.6842,13.0179-1.4518.4143-4.0803.5502-5.4641.1631,1.8704,1.2099,4.8986,1.411,7.3879.7616,5.4142-1.4125,8.7821-5.9939,8.5601-11.182-.0566-1.3282-.3688-2.5391-.8427-3.7103.0164.104.0374.8441.043.9497Z" style="fill:#949494; opacity:.5806;"/><path d="m22.5369,8.8007c.3203,6.6827-3.519,11.0918-9.5609,12.8836-1.4273.4233-4.0989.5756-5.4635.1939,1.8416,1.1758,4.8668,1.3362,7.316.6747,5.3552-1.4464,8.6567-5.9513,8.4688-11.0681-.0479-1.3101-.347-2.5033-.8026-3.6647.0162.1026.0372.8766.0422.9807Z" style="fill:#9c9c9c; opacity:.6129;"/><path d="m22.557,8.947c.2839,6.6374-3.4754,10.9124-9.4377,12.7493-1.4029.4322-4.1175.6011-5.4628.2247,1.8129,1.1418,4.8351,1.2612,7.2441.5878,5.2962-1.4806,8.5313-5.9087,8.3775-10.9543-.0392-1.292-.3252-2.4675-.7626-3.6191.016.1011.0371.909.0415,1.0117Z" style="fill:#a5a5a5; opacity:.6452;"/><path d="m22.577,9.0933c.2473,6.592-3.4319,10.7329-9.3144,12.6149-1.3784.441-4.136.6265-5.4622.2554,1.7841,1.1077,4.8033,1.1862,7.1722.5009,5.237-1.515,8.4059-5.8662,8.2862-10.8404-.0305-1.2738-.3034-2.4316-.7225-3.5735.0158.0997.0369.9414.0407,1.0427Z" style="fill:#adadad; opacity:.6774;"/><path d="m22.5971,9.2396c.2103,6.5466-3.3885,10.553-9.1912,12.4806-1.3541.4498-4.1546.6519-5.4616.2862,1.7554,1.0737,4.7714,1.111,7.1003.4139,5.1778-1.5497,8.2805-5.8236,8.195-10.7265-.0217-1.2557-.2817-2.3958-.6825-3.5279.0156.0982.0367.9739.0399,1.0737Z" style="fill:#b5b5b5; opacity:.7097;"/><path d="m22.6172,9.3859c.1731,6.5012-3.3452,10.3729-9.0679,12.3463-1.3297.4585-4.1732.6773-5.461.317,1.7266,1.0396,4.7395,1.0356,7.0284.327,5.1185-1.5846,8.1551-5.781,8.1037-10.6127-.013-1.2376-.2599-2.36-.6424-3.4823.0153.0968.0366,1.0063.0392,1.1047Z" style="fill:#bdbdbd; opacity:.7419;"/><path d="m22.6372,9.5322c.1357,6.4558-3.302,10.1925-8.9447,12.212-1.3053.4672-4.1917.7027-5.4603.3478,1.6978,1.0056,4.7076.9602,6.9565.2401,5.059-1.6199,8.0297-5.7384,8.0124-10.4988-.0043-1.2195-.2381-2.3242-.6023-3.4368.0151.0954.0364,1.0387.0384,1.1357Z" style="fill:#c5c5c5; opacity:.7742;"/><path d="m22.6573,9.6785c.0979,6.4104-3.259,10.0118-8.8214,12.0776-1.281.4758-4.2103.7282-5.4597.3786,1.6691.9716,4.6756.8847,6.8846.1532,4.9994-1.6554,7.9043-5.6959,7.9211-10.3849.0045-1.2014-.2163-2.2884-.5623-3.3912.0149.0939.0362,1.0712.0377,1.1666Z" style="fill:#cecece; opacity:.8065;"/><path d="m22.6773,9.8248c.0598,6.365-3.2162,9.8308-8.6982,11.9433-1.2568.4843-4.2289.7536-5.4591.4094,1.6403.9375,4.6436.809,6.8127.0663,4.9397-1.6912,7.7789-5.6533,7.8299-10.2711.0132-1.1832-.1946-2.2525-.5222-3.3456.0147.0925.036,1.1036.0369,1.1976Z" style="fill:#d6d6d6; opacity:.8387;"/><path d="m22.6974,9.9712c.0213,6.3195-3.1735,9.6496-8.5749,11.809-1.2325.4927-4.2475.779-5.4585.4402,1.6116.9035,4.6114.7332,6.7408-.0206,4.8799-1.7274,7.6535-5.6107,7.7386-10.1572.0219-1.1651-.1728-2.2167-.4822-3.3.0144.091.0358,1.136.0361,1.2286Z" style="fill:#dedede; opacity:.871;"/><path d="m22.7174,10.1175c-.0276,6.274-3.1354,9.4575-8.4517,11.6747-1.2093.4988-4.266.8044-5.4578.471,1.5828.8694,4.5793.6573,6.6689-.1075,4.8198-1.7639,7.5281-5.5681,7.6473-10.0434.0307-1.147-.151-2.1809-.4421-3.2544.0142.0896.0355,1.1685.0354,1.2596Z" style="fill:#e6e6e6; opacity:.9032;"/><path d="m22.7375,10.2638c-.0634,6.2285-3.0919,9.2788-8.3284,11.5403-1.1849.5078-4.2846.8298-5.4572.5018,1.5541.8354,4.5458.5779,6.597-.1944,4.7567-1.8083,7.4027-5.5256,7.5561-9.9295.0394-1.1289-.1292-2.1451-.4021-3.2088.014.0881.0353,1.2009.0346,1.2906Z" style="fill:#efefef; opacity:.9355;"/><path d="m22.7576,10.4101c-.0993,6.1829-3.0484,9.1002-8.2052,11.406-1.1605.5169-4.3032.8552-5.4566.5326,1.5253.8013,4.514.5033,6.5251-.2813,4.6976-1.8418,7.2773-5.483,7.4648-9.8156.0481-1.1108-.1074-2.1093-.362-3.1632.0138.0867.0352,1.2333.0338,1.3216Z" style="fill:#f7f7f7; opacity:.9677;"/><path d="m22.7776,10.5564c-.1351,6.1374-3.0048,8.9215-8.0819,11.2717-1.1361.526-4.3217.8807-5.456.5634,1.4965.7673,4.4822.4287,6.4532-.3682,4.6384-1.8753,7.1519-5.4404,7.3735-9.7018.0569-1.0927-.0857-2.0734-.322-3.1176.0135.0852.035,1.2658.0331,1.3526Z" style="fill:#fff;"/></g></g></g></g></svg>