<?xml version="1.0" encoding="UTF-8"?><svg xmlns="http://www.w3.org/2000/svg" xmlns:xlink="http://www.w3.org/1999/xlink" viewBox="0 0 24 24"><defs><radialGradient id="d" cx="8.9023" cy="6.7293" fx="8.9023" fy="6.7293" r="13.5408" gradientTransform="translate(.1177 -.1165) rotate(.5592)" gradientUnits="userSpaceOnUse"><stop offset="0" stop-color="#f2f2f2"/><stop offset="1" stop-color="#d6d6d6"/></radialGradient><clipPath id="e"><circle cx="12" cy="12" r="11.9999" transform="translate(-.1212 .1225) rotate(-.5819)" style="fill:none;"/></clipPath><clipPath id="f"><circle cx="12" cy="12" r="11.9999" transform="translate(-.1212 .1225) rotate(-.5819)" style="fill:none;"/></clipPath></defs><g style="isolation:isolate;"><g id="b"><g id="c"><circle cx="11.9999" cy="12" r="11.9999" transform="translate(-.1165 .1177) rotate(-.5592)" style="fill:url(#d);"/><g style="clip-path:url(#e);"><rect x="-2.1281" y="-.315" width="29.0331" height="12.315" style="fill:#00008b;"/><rect x="-2.1281" y="11.9999" width="29.0331" height="12.5577" style="fill:#00008b;"/><g style="clip-path:url(#f);"><polygon points="25.3262 22.1273 -4.4597 3.6513 -3.1655 .4826 26.6204 18.9586 25.3262 22.1273" style="fill:#fff;"/><polygon points="25.5688 21.5334 -4.2171 3.0574 -3.8393 2.1323 25.9467 20.6083 25.5688 21.5334" style="fill:red;"/><polygon points="-3.1655 .4826 26.6204 18.9586 25.3262 22.1273 -4.4597 3.6513 -3.1655 .4826" style="fill:#fff;"/><polygon points="-3.408 1.0765 26.3779 19.5525 26 20.4776 -3.7859 2.0016 -3.408 1.0765" style="fill:red;"/><rect x="12.1331" y="8.4024" width="15.3482" height="14.887" style="fill:none;"/><polygon points="25.3262 22.1273 -4.4597 3.6513 -3.1655 .4826 26.6204 18.9586 25.3262 22.1273" style="fill:#fff;"/><polygon points="25.5688 21.5334 -4.2171 3.0574 -3.8393 2.1323 25.9467 20.6083 25.5688 21.5334" style="fill:red;"/><rect x="-2.6432" y="2.1323" width="14.9619" height="18.9607" style="fill:none;"/><polygon points="-3.1655 .4826 26.6204 18.9586 25.3262 22.1273 -4.4597 3.6513 -3.1655 .4826" style="fill:#fff;"/><polygon points="-3.408 1.0765 26.3779 19.5525 26 20.4776 -3.7859 2.0016 -3.408 1.0765" style="fill:red;"/><rect x="12.1331" y="8.4024" width="15.3482" height="14.887" style="fill:none;"/><polygon points="25.3262 22.1273 -4.4597 3.6513 -3.1655 .4826 26.6204 18.9586 25.3262 22.1273" style="fill:#fff;"/><polygon points="25.5688 21.5334 -4.2171 3.0574 -3.8393 2.1323 25.9467 20.6083 25.5688 21.5334" style="fill:red;"/><rect x="-2.6432" y="2.1323" width="14.9619" height="18.9607" style="fill:none;"/><polygon points="27.5297 .4826 -2.2562 18.9586 -.962 22.1273 28.8239 3.6513 27.5297 .4826" style="fill:#fff;"/><polygon points="27.7723 1.0765 -2.0136 19.5525 -1.6358 20.4776 28.1501 2.0016 27.7723 1.0765" style="fill:red;"/><rect x="12.551" y="2.5452" width="13.2022" height="20.7442" style="fill:none;"/><polygon points="-.962 22.1273 28.8239 3.6513 27.5297 .4826 -2.2562 18.9586 -.962 22.1273" style="fill:#fff;"/><polygon points="-1.2046 21.5334 28.5813 3.0574 28.2035 2.1323 -1.5824 20.6083 -1.2046 21.5334" style="fill:red;"/><rect x="-2.3674" y="2.1323" width="15.2005" height="18.9607" style="fill:none;"/><rect x="-1.5871" y="9.5871" width="27.3403" height="4.6881" style="fill:#fff;"/><rect x="9.7903" y="-.8873" width="4.5548" height="25.7589" style="fill:#fff;"/><rect x="10.6485" y="-.8873" width="2.8385" height="25.7589" style="fill:red;"/><rect x="-1.5871" y="10.4703" width="27.3403" height="2.9215" style="fill:red;"/><rect x="-1.5871" y="3.5293" width="27.1742" height="16.856" style="fill:none;"/></g></g><circle cx="11.9999" cy="12" r="11.9999" transform="translate(-.1165 .1177) rotate(-.5592)" style="fill:none;"/><g style="mix-blend-mode:overlay; opacity:.6;"><path d="m1.0113,16.2456C1.0113,8.579,7.2264,2.364,14.893,2.364c1.9226,0,3.7537.3909,5.4185,1.0975C18.1615,1.3327,15.2043.0176,11.9397.0176,5.3678.0176.0404,5.345.0404,11.9168c0,1.68.3489,3.2784.977,4.7275-.0037-.1325-.0061-.2652-.0061-.3987Z" style="opacity:0;"/><path d="m1.0102,16.0968c.0299-7.6164,6.1485-13.7087,13.7412-13.7633,1.8994-.0122,3.7755.3679,5.4219,1.0667C18.0476,1.3091,15.0882.0349,11.862.0523,5.3449.0934.0935,5.3534.0686,11.8497c-.0064,1.6608.3318,3.2398.9429,4.6768-.0036-.131-.0017-.2976-.0013-.4296Z" style="fill:#080808; opacity:.0323;"/><path d="m1.009,15.9481c.0598-7.5663,6.082-13.5358,13.6007-13.645,1.8761-.0244,3.7973.3449,5.4252,1.0358C17.9336,1.2855,14.972.0522,11.7844.0871,5.322.1693.1466,5.3619.0968,11.7825c-.0128,1.6415.3146,3.2012.9088,4.6261-.0036-.1296.0026-.33.0035-.4605Z" style="fill:#101010; opacity:.0645;"/><path d="m1.0079,15.7994c.0897-7.5162,6.0155-13.363,13.4603-13.5267,1.8529-.0367,3.8192.322,5.4286,1.005C17.8197,1.2619,14.8559.0695,11.7067.1219,5.2991.2452.1997,5.3703.1251,11.7153c-.0191,1.6223.2975,3.1626.8746,4.5754-.0035-.1281.0069-.3623.0082-.4913Z" style="fill:#191919; opacity:.0968;"/><path d="m1.0067,15.6507c.1196-7.4661,5.949-13.1901,13.3198-13.4085,1.8297-.0489,3.841.299,5.4319.9742C17.7058,1.2384,14.7398.0868,11.6291.1567,5.2762.3211.2528,5.3788.1533,11.6482c-.0255,1.6031.2804,3.124.8405,4.5247-.0035-.1266.0113-.3947.013-.5222Z" style="fill:#212121; opacity:.129;"/><path d="m1.0056,15.5019c.1496-7.4159,5.8824-13.0173,13.1794-13.2902,1.8065-.0611,3.8628.276,5.4353.9433C17.5919,1.2148,14.6234.0977,11.5514.1915,5.2528.3838.3059,5.3872.1815,11.581c-.0319,1.5839.2633,3.0854.8064,4.474-.0035-.1252.0156-.4271.0177-.553Z" style="fill:#292929; opacity:.1613;"/><path d="m1.0045,15.3532C1.1839,7.9874,6.8197,2.4935,14.0434,2.1812c1.7831-.0771,3.8847.253,5.4386.9125C17.478,1.1912,14.5072.114,11.4738.2263,5.2297.4575.359,5.3957.2097,11.5138c-.0383,1.5646.2461,3.0469.7723,4.4233-.0034-.1237.02-.4595.0225-.5839Z" style="fill:#313131; opacity:.1935;"/><path d="m1.0033,15.2045C1.1963,7.8883,6.7518,2.5156,13.9018,2.1508c1.7598-.0898,3.9065.23,5.442.8817C17.3641,1.1676,14.391.1303,11.3961.2611,5.2066.5313.4121,5.4041.2379,11.4467c-.0447,1.5454.229,3.0083.7381,4.3726-.0034-.1222.024-.4918.0273-.6147Z" style="fill:#3a3a3a; opacity:.2258;"/><path d="m1.0022,15.0557C1.2233,7.7896,6.6839,2.5378,13.7602,2.1203c1.7365-.1025,3.9283.207,5.4454.8508C17.2501,1.144,14.2748.1467,11.3185.2959,5.1835.6053.4652,5.4126.2661,11.3795c-.0511,1.5262.2119,2.9697.704,4.3218-.0034-.1207.0283-.5242.032-.6456Z" style="fill:#424242; opacity:.2581;"/><path d="m1.001,14.907C1.2504,7.6908,6.616,2.5602,13.6186,2.0899c1.7132-.1151,3.9502.184,5.4487.82C17.1362,1.1204,14.1585.1633,11.2408.3306,5.1603.6795.5183,5.421.2943,11.3123c-.0574,1.507.1947,2.9311.6699,4.2711-.0033-.1193.0327-.5566.0368-.6765Z" style="fill:#4a4a4a; opacity:.2903;"/><path d="m.9999,14.7583C1.2778,7.5921,6.548,2.5828,13.477,2.0594c1.6899-.1277,3.972.161,5.4521.7891C17.0223,1.0969,14.0423.1799,11.1632.3654,5.1371.7538.5714,5.4295.3225,11.2452c-.0638,1.4877.1776,2.8925.6358,4.2204-.0033-.1178.037-.589.0416-.7073Z" style="fill:#525252; opacity:.3226;"/><path d="m.9987,14.6096C1.3052,7.4933,6.48,2.6055,13.3354,2.0289c1.6666-.1402,3.9938.138,5.4554.7583C16.9084,1.0733,13.926.1966,11.0855.4002,5.1139.8283.6245,5.4379.3508,11.178c-.0702,1.4685.1605,2.8539.6016,4.1697-.0033-.1163.0413-.6213.0463-.7382Z" style="fill:#5a5a5a; opacity:.3548;"/><path d="m.9976,14.4608C1.3329,7.3946,6.412,2.6285,13.1938,1.9985c1.6434-.1527,4.0157.1151,5.4588.7275C16.7945,1.0497,13.8098.2134,11.0079.435,5.0907.903.6776,5.4464.379,11.1108c-.0766,1.4493.1434,2.8153.5675,4.119-.0032-.1149.0456-.6537.0511-.769Z" style="fill:#636363; opacity:.3871;"/><path d="m.9964,14.3121C1.3607,7.2958,6.344,2.6516,13.0522,1.968c1.6201-.1651,4.0375.0921,5.4621.6966C16.6806,1.0261,13.6935.2303,10.9302.4698,5.0675.9779.7307,5.4548.4072,11.0437c-.083,1.4301.1262,2.7767.5334,4.0683-.0032-.1134.0499-.6861.0559-.7999Z" style="fill:#6b6b6b; opacity:.4194;"/><path d="m.9953,14.1634C1.3888,7.197,6.2761,2.675,12.9106,1.9375c1.5968-.1775,4.0593.0691,5.4655.6658-1.8094-1.6008-4.7988-2.356-7.5235-2.0987C5.0443,1.053.7838,5.4633.4354,10.9765c-.0893,1.4109.1091,2.7381.4993,4.0176-.0031-.1119.0543-.7185.0606-.8307Z" style="fill:#737373; opacity:.4516;"/><path d="m.9941,14.0147C1.417,7.0983,6.2081,2.6985,12.769,1.9071c1.5735-.1898,4.0811.0461,5.4688.635-1.7851-1.5631-4.7768-2.2776-7.4629-2.0027C5.0211,1.1284.8369,5.4717.4636,10.9094c-.0957,1.3916.092,2.6996.4651,3.9669-.0031-.1104.0586-.7508.0654-.8616Z" style="fill:#7b7b7b; opacity:.4839;"/><path d="m.993,13.8659C1.4454,6.9995,6.1401,2.7223,12.6274,1.8766c1.5502-.2021,4.103.0231,5.4722.6041-1.7607-1.5254-4.7548-2.1991-7.4023-1.9066C4.998,1.2039.89,5.4802.4918,10.8422c-.1021,1.3724.0748,2.661.431,3.9162-.0031-.109.0629-.7832.0701-.8925Z" style="fill:#848484; opacity:.5161;"/><path d="m.9918,13.7172C1.4741,6.9008,6.0721,2.7463,12.4858,1.8461c1.5269-.2143,4.1248.0001,5.4755.5733-1.7364-1.4876-4.7328-2.1205-7.3417-1.8105C4.9748,1.2797.9431,5.4886.52,10.775c-.1085,1.3532.0577,2.6224.3969,3.8655-.003-.1075.0673-.8156.0749-.9233Z" style="fill:#8c8c8c; opacity:.5484;"/><path d="m.9907,13.5685C1.503,6.802,6.0042,2.7706,12.3442,1.8157c1.5036-.2265,4.1466-.0229,5.4789.5425-1.7121-1.4499-4.7108-2.0417-7.2811-1.7144C4.9516,1.3557.9962,5.4971.5483,10.7079c-.1149,1.334.0406,2.5838.3628,3.8148-.003-.106.0716-.848.0797-.9542Z" style="fill:#949494; opacity:.5806;"/><path d="m.9895,13.4197C1.5321,6.7033,5.9363,2.7951,12.2026,1.7852c1.4803-.2386,4.1685-.0459,5.4822.5116-1.6877-1.4122-4.6887-1.9629-7.2205-1.6183C4.9285,1.4319,1.0493,5.5055.5765,10.6407c-.1212,1.3147.0235,2.5452.3286,3.7641-.003-.1046.076-.8804.0844-.985Z" style="fill:#9c9c9c; opacity:.6129;"/><path d="m.9884,13.271C1.5614,6.6046,5.8685,2.8198,12.061,1.7547c1.4571-.2506,4.1903-.0689,5.4856.4808-1.6634-1.3745-4.6667-1.8839-7.1599-1.5222C4.9055,1.5085,1.1024,5.514.6047,10.5735c-.1276,1.2955.0063,2.5066.2945,3.7134-.0029-.1031.0803-.9127.0892-1.0159Z" style="fill:#a5a5a5; opacity:.6452;"/><path d="m.9872,13.1223C1.591,6.506,5.8007,2.8449,11.9194,1.7243c1.4338-.2626,4.2121-.0919,5.4889.4499-1.6391-1.3368-4.6446-1.8048-7.0993-1.4261C4.8824,1.5853,1.1555,5.5224.6329,10.5064c-.134,1.2763-.0108,2.468.2604,3.6627-.0029-.1016.0847-.9451.094-1.0468Z" style="fill:#adadad; opacity:.6774;"/><path d="m.9861,12.9736C1.6209,6.4073,5.733,2.8702,11.7778,1.6938c1.4106-.2745,4.234-.1148,5.4923.4191-1.6147-1.299-4.6225-1.7256-7.0387-1.33C4.8595,1.6623,1.2086,5.5308.6611,10.4392c-.1404,1.2571-.0279,2.4294.2263,3.612-.0028-.1001.089-.9775.0987-1.0776Z" style="fill:#b5b5b5; opacity:.7097;"/><path d="m.985,12.8248C1.6511,6.3088,5.6653,2.8957,11.6362,1.6633c1.3874-.2864,4.2558-.1378,5.4956.3883-1.5904-1.2613-4.6004-1.6463-6.9781-1.2339C4.8366,1.7397,1.2617,5.5393.6893,10.372c-.1468,1.2378-.0451,2.3908.1921,3.5613-.0028-.0987.0934-1.0099.1035-1.1085Z" style="fill:#bdbdbd; opacity:.7419;"/><path d="m.9838,12.6761C1.6815,6.2102,5.5978,2.9216,11.4946,1.6329c1.3642-.2981,4.2776-.1608,5.499.3574-1.5661-1.2236-4.5782-1.5668-6.9175-1.1378C4.8137,1.8174,1.3148,5.5477.7175,10.3049c-.1532,1.2186-.0622,2.3523.158,3.5106-.0028-.0972.0978-1.0422.1082-1.1393Z" style="fill:#c5c5c5; opacity:.7742;"/><path d="m.9827,12.5274C1.7122,6.1117,5.5303,2.9478,11.353,1.6024c1.341-.3099,4.2995-.1838,5.5023.3266-1.5418-1.1859-4.556-1.4872-6.8569-1.0418C4.791,1.8953,1.3679,5.5562.7458,10.2377c-.1595,1.1994-.0793,2.3137.1239,3.4599-.0027-.0957.1021-1.0746.113-1.1702Z" style="fill:#cecece; opacity:.8065;"/><path d="m.9815,12.3786C1.7433,6.0133,5.463,2.9743,11.2114,1.5719c1.3178-.3215,4.3213-.2068,5.5057.2958-1.5174-1.1482-4.5338-1.4075-6.7963-.9457C4.7684,1.9736,1.421,5.5646.774,10.1705c-.1659,1.1802-.0964,2.2751.0898,3.4091-.0027-.0943.1065-1.107.1178-1.201Z" style="fill:#d6d6d6; opacity:.8387;"/><path d="m.9804,12.2299C1.7746,5.9149,5.3958,3.0012,11.0698,1.5415c1.2947-.3331,4.3431-.2298,5.509.2649-1.4931-1.1104-4.5115-1.3276-6.7357-.8496C4.7459,2.0523,1.4741,5.5731.8022,10.1034c-.1723,1.1609-.1136,2.2365.0556,3.3584-.0027-.0928.1109-1.1393.1225-1.2319Z" style="fill:#dedede; opacity:.871;"/><path d="m.9792,12.0812C1.8167,5.818,5.3318,3.0393,10.9282,1.511c1.2723-.3421,4.365-.2528,5.5124.2341-1.4688-1.0727-4.4891-1.2476-6.6751-.7535C4.7235,2.1313,1.5272,5.5815.8304,10.0362c-.1787,1.1417-.1307,2.1979.0215,3.3077-.0026-.0913.1154-1.1717.1273-1.2628Z" style="fill:#e6e6e6; opacity:.9032;"/><path d="m.9781,11.9325C1.8455,5.7194,5.2641,3.0635,10.7866,1.4805c1.2491-.3543,4.3868-.2758,5.5157.2033-1.4444-1.035-4.4659-1.1641-6.6145-.6574C4.7032,2.2185,1.5803,5.59.8586,9.969c-.1851,1.1225-.1478,2.1593-.0126,3.257-.0026-.0899.1198-1.2041.1321-1.2936Z" style="fill:#efefef; opacity:.9355;"/><path d="m.9769,11.7837C1.8742,5.6208,5.1965,3.0876,10.645,1.4501c1.2259-.3665,4.4086-.2988,5.5191.1724-1.4201-.9973-4.4438-1.0854-6.5539-.5613C4.6802,2.2944,1.6334,5.5984.8868,9.9019c-.1914,1.1033-.1649,2.1207-.0467,3.2063-.0025-.0884.1241-1.2364.1368-1.3245Z" style="fill:#f7f7f7; opacity:.9677;"/><path d="m.9758,11.635C1.903,5.5221,5.1288,3.1117,10.5034,1.4196c1.2027-.3787,4.4305-.3218,5.5224.1416-1.3958-.9596-4.4217-1.0068-6.4934-.4652C4.6573,2.3703,1.6865,5.6069.915,9.8347c-.1978,1.0841-.1821,2.0821-.0809,3.1556-.0025-.0869.1285-1.2688.1416-1.3553Z" style="fill:#fff;"/></g></g></g></g></svg>